<svg xmlns="http://www.w3.org/2000/svg" viewBox="0 0 434.68 397.35"><title>designed</title><g style="isolation:isolate"><rect x="30.59" y="173.67" width="55.14" height="55.14" rx="9.95" style="fill:#96fffa;opacity:0.58"/><rect x="66.42" y="104" width="51.42" height="52.9" rx="9.41" style="fill:#fcddfc"/><rect x="44.04" y="39.78" width="25.71" height="26.45" rx="4.71" style="fill:#fcddfc"/><rect x="207.04" y="176.2" width="25.71" height="26.45" rx="4.71" style="fill:#fcddfc"/><rect x="230.47" y="53" width="25.71" height="26.45" rx="4.71" style="fill:#fcddfc"/><rect x="376.48" y="49.73" width="25.71" height="26.45" rx="4.71" style="fill:#fcddfc"/><rect x="13.52" y="11.83" width="16.59" height="17.07" rx="3.04" style="fill:#fcddfc"/><rect x="161.97" y="20.36" width="16.59" height="17.07" rx="3.04" style="fill:#fcddfc"/><rect x="42.73" y="268.31" width="16.59" height="17.07" rx="3.04" style="fill:#fcddfc"/><rect x="376.02" y="343.43" width="16.59" height="17.07" rx="3.04" style="fill:#fcddfc"/><rect x="241.26" y="302.8" width="16.59" height="17.07" rx="3.04" style="fill:#fcddfc"/><rect x="376.04" y="100.93" width="13.55" height="13.94" rx="2.48" style="fill:#fcddfc"/><rect x="314.34" y="41.95" width="13.55" height="13.94" rx="2.48" style="fill:#96fffa;opacity:0.58"/><rect x="59.64" y="18.12" width="13.55" height="13.94" rx="2.48" style="fill:#96fffa;opacity:0.58"/><rect x="6.74" y="53" width="13.55" height="13.94" rx="2.48" style="fill:#96fffa;opacity:0.58"/><rect x="179.11" y="143.43" width="13.55" height="13.94" rx="2.48" style="fill:#96fffa;opacity:0.58"/><rect x="392.54" y="109.15" width="13.55" height="13.94" rx="2.48" style="fill:#96fffa;opacity:0.58"/><rect x="327.92" y="57.69" width="16.59" height="17.07" rx="3.04" style="fill:#fcddfc"/><rect x="161.5" y="73" width="16.59" height="17.07" rx="3.04" style="fill:#fcddfc"/><rect x="188.68" y="117.62" width="16.59" height="17.07" rx="3.04" style="fill:#fcddfc"/><rect x="404.59" y="134.69" width="16.59" height="17.07" rx="3.04" style="fill:#fcddfc"/><circle cx="323.02" cy="240.52" r="89.86" style="fill:#96fffa;opacity:0.58"/><path d="M90,276.79c-10.58-11-31.29-28.69-21.64-46,11.84-21.24,52.45-14.86,71.19-9.46,17.05,4.92,33.49,15,29.68,35.24-1.59,8.49-8.61,14.23-10.84,22.18-3.8-1.37-9.14-.31-13.32-.52,1.45-5.6.47-11.89-3.91-15.93-6.55-6.05-24.77-14.6-34-11.43-12.55,4.31,3.68,24.44,7.77,29.84-5.49-1-10.79.39-16.45.09" style="fill:#ccc2fe"/><path d="M76,285.42H181.6a4.29,4.29,0,0,0,4.28-4.29h0a4.29,4.29,0,0,0-4.28-4.28H76a4.3,4.3,0,0,0-4.29,4.28h0A4.3,4.3,0,0,0,76,285.42Z" style="fill:#ccc2fe"/><path d="M165.53,376.16h0a1.34,1.34,0,0,0,1.33-1.33V282.47a1.34,1.34,0,0,0-1.33-1.34h0a1.34,1.34,0,0,0-1.33,1.34v92.36A1.34,1.34,0,0,0,165.53,376.16Z" style="fill:#ccc2fe"/><path d="M108.92,376.16h0a1.34,1.34,0,0,0,1.34-1.33V282.47a1.34,1.34,0,0,0-1.34-1.34h0a1.34,1.34,0,0,0-1.33,1.34v92.36A1.34,1.34,0,0,0,108.92,376.16Z" style="fill:#ccc2fe"/><path d="M134.53,378.52h0a1.34,1.34,0,0,0,1.33-1.33V284.83a1.34,1.34,0,0,0-1.33-1.34h0a1.34,1.34,0,0,0-1.34,1.34v92.36A1.34,1.34,0,0,0,134.53,378.52Z" style="fill:#ccc2fe"/><path d="M82.05,376.16h0a1.34,1.34,0,0,0,1.34-1.33V282.47a1.34,1.34,0,0,0-1.34-1.34h0a1.34,1.34,0,0,0-1.33,1.34v92.36A1.34,1.34,0,0,0,82.05,376.16Z" style="fill:#ccc2fe"/><polygon points="288.46 249.37 289.54 251.35 291.53 252.44 289.54 253.52 288.46 255.5 287.37 253.52 285.39 252.44 287.37 251.35 288.46 249.37" style="fill:#eef4f2"/><polygon points="204.23 268.49 195.22 378.52 211.22 273.02 321.22 273.02 343.72 378.52 328.22 274.52 335.22 274.02 363.22 378.52 336.41 268.49 204.23 268.49" style="fill:#ccc2fe;stroke:#ccc2fe;stroke-linecap:round;stroke-linejoin:round;stroke-width:2px"/><polygon points="214.47 274.52 230.47 378.52 220.47 274.52 214.47 274.52" style="fill:#ccc2fe;stroke:#ccc2fe;stroke-linecap:round;stroke-linejoin:round;stroke-width:2px"/><path d="M336.41,268.49h-138c-1.75,0-3.18-.88-3.18-1.94h0c0-1.07,1.43-1.94,3.18-1.94h138c1.75,0,3.18.87,3.18,1.94h0C339.59,267.61,338.16,268.49,336.41,268.49Z" style="fill:#8b77e8"/><path d="M269.88,265.62h-27.8a3,3,0,0,1-3-3h0a3,3,0,0,1,3-3h27.8a3,3,0,0,1,3,3h0A3,3,0,0,1,269.88,265.62Z" style="fill:#b3a4f5"/><rect x="265.6" y="214.85" width="66.96" height="50.35" rx="2.76" style="fill:#ccc2fe"/><path d="M310.41,240.66a6.69,6.69,0,1,1-6.69-6.69A6.7,6.7,0,0,1,310.41,240.66Z" style="fill:#eef4f2"/><rect x="135.63" y="220.83" width="31.52" height="60" rx="12" style="fill:#745cd4"/><path d="M120.75,196.83c-1.36-1.88-2.74-3.76-4.08-5.7-4.65-6.68-11.81-16.06-10.13-24.75a13,13,0,0,1,2.12-.91l.78-.25h0c1.18-.37,2.58-.76,4.06-1.11a42.08,42.08,0,0,1,8.4-1.29A15.58,15.58,0,0,0,125,162c2.35-.79,5.22-1.9,6-2.28a28.3,28.3,0,0,0,7-5.15c4.77-4.79,6.72-10.22,6.77-12.75a42.81,42.81,0,0,1,.65-6l14.45.25c0,1.41-.07,2.7-.07,3.66,0,5.75,3.12,10.79,7.22,14.86a47.74,47.74,0,0,0,15.43,10c1.14.08,2.61.21,4.22.4s3.47.42,5.2.71c.69.1,1.37.22,2,.36.33,0,.65.12,1,.19h0l.46.1.78.19.08,0,.8.23a1.58,1.58,0,0,1,.37.11c.25.07.48.15.69.23a10.18,10.18,0,0,1,4.57,3.11l.06.06a7.86,7.86,0,0,1,1.41,3.2c.65,3.28.18,7.16.45,11,.16,2.36-10.66,7.5-15.66,10.22a20,20,0,0,0-2.13,1.28,72.67,72.67,0,0,0-5.62,4.66c-.43.38-.86.79-1.27,1.19-4.82,4.67-8.81,10.1-10.76,16.44-.1.35-.21.74-.31,1.15,0,.14-.07.28-.1.43s-.07.29-.1.44-.14.61-.19.93c-.48,2.41-.88,5.41-1.21,8.53-.06.59-.12,1.19-.17,1.79L136.39,231c0-.57,0-1.14,0-1.7,0-1.37-.1-2.71-.19-4,0-.81-.11-1.59-.19-2.36,0-.28-.06-.55-.1-.82-.05-.45-.1-.88-.17-1.31,0-.28-.08-.56-.13-.84s-.1-.53-.16-.8-.1-.51-.16-.77-.11-.49-.18-.73a36.8,36.8,0,0,0-7.63-14A63.9,63.9,0,0,0,120.75,196.83Z" style="fill:#eae9c5"/><path d="M103.47,168.06a7.15,7.15,0,0,1,5.6-3.85c4.38-.74,8.86-1.17,13.17-2.11.75-.15,1.47-.33,2.19-.52,1-.26,2-.56,2.95-.91a31.82,31.82,0,0,0,13.91-9.88l.09-.13,23.78.42.1.14a30.12,30.12,0,0,0,3.14,3.36c.59.54,1.19,1.08,1.81,1.58A46.52,46.52,0,0,0,174,159l.28.19c.51.33,1,.66,1.54,1l.41.25,1.52.88.28.16,1.75.92.27.14h0c.46.22.91.44,1.36.64a.11.11,0,0,0,.07,0c.14.08.28.14.41.2l1.1.48.44.18c.39.16.77.31,1.13.44a1.87,1.87,0,0,0,.52.12c1.17.08,2.63.21,4.22.38,1.76.18,3.68.42,5.51.71.74.11,1.46.24,2.15.36l1,.2.48.1c.28.06.57.12.83.19l.09,0,.85.23a1.9,1.9,0,0,1,.39.11c.26.07.51.16.73.23a11.06,11.06,0,0,1,4.86,3.12.34.34,0,0,0,.06.06c.15.2.29.41.43.62l.14.22a4.31,4.31,0,0,1,.26.47l.12.25c.08.18.16.37.23.55a9.19,9.19,0,0,1,.32,1.09c.69,3.28.2,7.17.49,11a1.55,1.55,0,0,1,0,.29l0,.08a1.11,1.11,0,0,1-.13.27.33.33,0,0,0,0,.06,3.36,3.36,0,0,1-.27.36l0,0c-2.05,2.36-9.83,6-14.69,8.41l-.38.19-.29.15-.73.37a20.87,20.87,0,0,0-2.26,1.28c-2,1.45-4.05,3-6,4.65-.46.38-.92.79-1.35,1.19-5.11,4.67-9.34,10.09-11.4,16.43-.1.35-.23.73-.33,1.15,0,.14-.07.29-.11.43s-.07.29-.1.44-.15.61-.2.93c-.51,2.42-.93,5.41-1.28,8.53,0,.6-.12,1.2-.18,1.79-.2,2-.37,3.93-.51,5.8-.26,3.21-.44,6.14-.54,8.25a7.73,7.73,0,0,1,0,.84V247c-.12,6.66-6,12-13.16,11.88l-7.36-.13c-6.12-.11-11.05-4.88-11-10.61,0,0,0-1.18,0-1.18,0-1.1,0-2.33,0-3.68,0-1.81,0-3.81,0-5.87s0-4.3,0-6.47c0-.57,0-1.14,0-1.7-.06-1.36-.12-2.71-.21-4,0-.81-.12-1.59-.21-2.35,0-.28-.06-.56-.1-.83-.06-.44-.12-.88-.19-1.31,0-.28-.09-.56-.14-.83s-.1-.54-.17-.81-.11-.51-.17-.77-.12-.49-.19-.73c-1.95-6.58-6.67-11.53-11.77-16.21a80.81,80.81,0,0,1-12.84-15C107.11,182,101.06,173.13,103.47,168.06Z" style="fill:#eae9c5"/><path d="M134.53,220c0,.32.09.64.12,1,.07.58.13,1.17.2,1.77l.09,1.11c.09,1,.16,2.09.22,3.19.09,1.73.16,3.55.21,5.39,0,.76,0,1.53,0,2.3,0,2.92,0,5.89,0,8.73s0,5.49-.06,7.94c0,1.82,0,3.47,0,5,0,0,0,1.61,0,1.61-.1,7.73,4.91,14.17,11.13,14.31l7.48.18c7.24.17,13.27-7.05,13.39-16v-.8c0-.39,0-.76,0-1.14.11-2.84.29-6.79.55-11.14.15-2.52.32-5.18.52-7.83.06-.8.13-1.61.19-2.41.35-4.22.78-8.26,1.29-11.52.06-.44.13-.87.21-1.26a2.87,2.87,0,0,1,0-.31Z" style="fill:#745cd4"/><path d="M137.91,154.77a21.09,21.09,0,0,0,29.24,0c-4.13-4.1-7.27-9.19-7.28-15,0-1,.06-2.27.08-3.7l-14.56-.26a44.31,44.31,0,0,0-.67,6.08C144.68,144.45,142.72,149.94,137.91,154.77Z" style="fill:#b3a4f5"/><path d="M183.05,185.68l18.51,41.56a13.12,13.12,0,0,0,17.19,6.6,12.91,12.91,0,0,0,6.66-17L206.9,175.24a13,13,0,0,0-9.23-7.4h-.08a13,13,0,0,0-6.64.34h0a12.28,12.28,0,0,0-1.23.46,12.91,12.91,0,0,0-6.87,7.16,13.15,13.15,0,0,0-.63,2.14A12.69,12.69,0,0,0,183.05,185.68Z" style="fill:#eae9c5"/><path d="M207.7,212.66a13.92,13.92,0,0,1,18.49,6.49,13.75,13.75,0,0,1-12.58,19.65v.06l-43.33,6.25-3.28-6.8,38-23.92A14.45,14.45,0,0,1,207.7,212.66Z" style="fill:#eae9c5"/><path d="M178.82,232.67c2,2,2.78,4.74,2.08,8.14a24.35,24.35,0,0,1-.82,2.89l-9.79,1.41-3.28-6.8,10.28-6.48Q178.07,232.24,178.82,232.67Z" style="fill:#eae9c5"/><polygon points="168.81 238.63 170.26 244.49 153.36 250.69 142.5 248.94 141.69 244.66 152.66 243.53 160.84 239.41 155.88 238.63 148.94 240.35 147.92 238.21 158.06 235.21 168.81 238.63" style="fill:#ccc2fe"/><path d="M104.9,167.1,64.85,189.17a12.88,12.88,0,0,0-5,17.57,13.13,13.13,0,0,0,17.72,5l40.05-22.07a12.92,12.92,0,0,0,6.59-9.79.19.19,0,0,1,0-.08,12.82,12.82,0,0,0-1-6.52v0c-.17-.39-.37-.78-.58-1.17a13,13,0,0,0-7.82-6.13,13.68,13.68,0,0,0-2.21-.42A13,13,0,0,0,104.9,167.1Z" style="fill:#eae9c5"/><path d="M80.05,193.9a13.67,13.67,0,0,1-4.82,18.84,13.93,13.93,0,0,1-19-4.78,13.56,13.56,0,0,1-1.88-5.84l-.05,0L44,159.93l6.53-3.86,27.5,35.28A13.48,13.48,0,0,1,80.05,193.9Z" style="fill:#eae9c5"/><path d="M57.32,167.22c-1.82,2.17-4.51,3.17-8,2.79a23.28,23.28,0,0,1-3-.54L44,159.93l6.53-3.86L58,165.63C57.8,166.17,57.56,166.7,57.32,167.22Z" style="fill:#eae9c5"/><polygon points="50.41 157.88 44.66 159.85 36.89 143.73 37.66 132.85 41.88 131.66 44.02 142.38 48.9 150.08 49.23 145.12 46.87 138.42 48.93 137.22 52.87 146.96 50.41 157.88" style="fill:#ccc2fe"/><path d="M124.56,161.6l53.37,1v-.1l-.26-.14q-.82-.45-1.68-1l-.26-.16c-.49-.29-1-.59-1.46-.91l-.4-.27c-.5-.32-1-.66-1.48-1a3.15,3.15,0,0,0-.27-.19,45.41,45.41,0,0,1-3.59-2.89c-.59-.51-1.17-1.07-1.74-1.63a30.94,30.94,0,0,1-3-3.48l-23-.41a30.76,30.76,0,0,1-13.37,10.26C126.46,161,125.51,161.33,124.56,161.6Z" style="fill:#d3d1a5"/><path d="M122.64,162.13c.71-.15,1.41-.33,2.1-.53q1.42-.39,2.82-.9a31,31,0,0,0,7-3.81l35.65.64c.63.49,1.26,1,1.9,1.41l.27.18c.49.34,1,.66,1.47,1l.4.25c.49.31,1,.61,1.45.88l.27.16c.56.33,1.12.64,1.67.92l.26.14a0,0,0,0,0,0,0c.44.22.87.44,1.3.64a.11.11,0,0,0,.07,0c-.58-.06-1.18-.1-1.78-.14-14.35-.7-26.64,9.58-28.33,23.29l-.4,0a26.94,26.94,0,0,0-25.68-23.75c-.2,0-.4,0-.6,0C122.56,162.37,122.59,162.25,122.64,162.13Z" style="fill:#d3d1a5"/><path d="M151.34,206.36h0c.88,0,1.62-1.43,1.66-3.2l.8-44.59c0-1.78-.66-3.24-1.54-3.26h0c-.88,0-1.63,1.43-1.66,3.2l-.8,44.59C149.77,204.88,150.46,206.34,151.34,206.36Z" style="fill:#4a3e93"/><path d="M152.31,158.22h.33A3.31,3.31,0,0,0,156,155h0a3.3,3.3,0,0,0-3.24-3.36h-.32a3.31,3.31,0,0,0-3.36,3.24h0A3.31,3.31,0,0,0,152.31,158.22Z" style="fill:#4a3e93"/><path d="M161.86,137.59l.58,0a2.22,2.22,0,0,0,2.38-2l.16-4a2.2,2.2,0,0,0-2.21-2.18l-.58,0a2.22,2.22,0,0,0-2.38,2l-.16,4A2.19,2.19,0,0,0,161.86,137.59Z" style="fill:#b3a4f5"/><path d="M142.41,136.62l.58,0a2.23,2.23,0,0,0,2.38-2l.16-4.05a2.2,2.2,0,0,0-2.21-2.18l-.58,0a2.23,2.23,0,0,0-2.38,2l-.16,4.05A2.2,2.2,0,0,0,142.41,136.62Z" style="fill:#b3a4f5"/><path d="M151.05,146.6h0c4.94.18,9.13-3.37,9.31-7.89l.68-16.89c.18-4.52-3.71-8.36-8.65-8.54h0c-4.94-.18-9.13,3.37-9.31,7.89l-.68,16.89C142.21,142.58,146.11,146.42,151.05,146.6Z" style="fill:#ccc2fe"/><path d="M139.05,150.66c0,4.45,2.91,8.05,6.48,8.05s6.46-3.6,6.48-8.05Z" style="fill:#eae9c5"/><path d="M152,150.66c0,4.45,2.91,8.05,6.47,8.05s6.46-3.6,6.48-8.05Z" style="fill:#eae9c5"/><circle cx="153.14" cy="139.07" r="2.43" style="fill:#4a3e93"/><path d="M157.35,377.11h.3a4.67,4.67,0,0,0,4.71-4.62l.4-76.92a4.67,4.67,0,0,0-4.66-4.67h-.29a4.67,4.67,0,0,0-4.71,4.62l-.41,76.92A4.68,4.68,0,0,0,157.35,377.11Z" style="fill:#745cd4"/><path d="M181,373.49h.3a4.69,4.69,0,0,0,4.71-4.62l.4-76.93a4.68,4.68,0,0,0-4.66-4.67h-.29a4.68,4.68,0,0,0-4.71,4.62l-.41,76.93A4.68,4.68,0,0,0,181,373.49Z" style="fill:#745cd4"/><rect x="147.09" y="268.91" width="7.94" height="31.51" rx="3.4" transform="translate(-135.33 136.89) rotate(-34.75)" style="fill:#745cd4"/><rect x="168.13" y="264.69" width="7.94" height="35.68" rx="3.64" transform="translate(-152.78 220.1) rotate(-47.77)" style="fill:#745cd4"/><path d="M164.93,382.2H154.74a3.69,3.69,0,0,1-3.68-3.68h0a3.69,3.69,0,0,1,3.68-3.68h10.19a3.7,3.7,0,0,1,3.68,3.68h0A3.7,3.7,0,0,1,164.93,382.2Z" style="fill:#4a3e93"/><path d="M188.93,377.17H178.74a3.69,3.69,0,0,1-3.68-3.68h0a3.69,3.69,0,0,1,3.68-3.68h10.19a3.7,3.7,0,0,1,3.68,3.68h0A3.7,3.7,0,0,1,188.93,377.17Z" style="fill:#4a3e93"/><circle cx="363.22" cy="155.31" r="18.8" style="fill:#ffd359"/><rect x="137.14" y="150.02" width="30.24" height="2.51" rx="1.25" style="fill:#eae9c5"/><path d="M160.72,130.35A10.47,10.47,0,0,1,156,119.67a16.22,16.22,0,0,1-5,.69c-4.17.2-8.46.27-12-2.28-4.12-3-12.32-11.39-6.33-16.26,3.47-2.82,7-2.09,10.21.81,2.86,2.56,3.46,6.49,7.18,8.36,3,1.49,5.3.67,8.38,1.19,4.92.82,4.49,7,3.92,10.69C162,125.18,161.86,128.3,160.72,130.35Z" style="fill:#4a3e93"/><rect x="19.55" y="83.52" width="66.5" height="66.5" rx="12" style="fill:#ff75fe"/><path d="M77,83.89C65.78,104.82,56.38,127.09,37,142a79.92,79.92,0,0,1-10.62,6.87,11.83,11.83,0,0,0,5.17,1.2h42.5a12,12,0,0,0,12-12V95.52A12,12,0,0,0,77,83.89Z" style="fill:#ff75fe;opacity:0.56;mix-blend-mode:multiply"/><path d="M39.31,109.1h2.62v13.55c0,5.38-2.65,7-6.13,7a8.56,8.56,0,0,1-2.8-.48l.4-2.14a6.21,6.21,0,0,0,2.19.4c2.34,0,3.72-1.06,3.72-5Z" style="fill:#fff"/><path d="M45.36,127.1a6.48,6.48,0,0,0,3.3.93c1.89,0,3-1,3-2.44s-.76-2.1-2.69-2.84c-2.33-.83-3.77-2-3.77-4,0-2.23,1.84-3.88,4.62-3.88a6.52,6.52,0,0,1,3.16.7l-.51,1.5a5.77,5.77,0,0,0-2.71-.67c-2,0-2.7,1.16-2.7,2.14,0,1.33.87,2,2.84,2.76,2.42.93,3.65,2.1,3.65,4.19s-1.63,4.12-5,4.12a7.37,7.37,0,0,1-3.65-.91Z" style="fill:#fff"/><rect x="90.26" y="21.35" width="55.14" height="55.14" rx="9.95" style="fill:#70e5ff"/><path d="M137.87,21.66C128.6,39,120.8,57.48,104.73,69.8a66.69,66.69,0,0,1-8.81,5.7,9.83,9.83,0,0,0,4.29,1h35.24a10,10,0,0,0,10-9.95V31.3A10,10,0,0,0,137.87,21.66Z" style="fill:#ff75fe;opacity:0.56;mix-blend-mode:multiply"/><path d="M96.73,43.23V48h5.47V43.23h1.48V54.55H102.2v-5.3H96.73v5.3H95.27V43.23Z" style="fill:#fff"/><path d="M108.37,44.47h-3.44V43.23h8.38v1.24h-3.46V54.55h-1.48Z" style="fill:#fff"/><path d="M124.11,49.58c-.08-1.58-.18-3.48-.17-4.89h0c-.39,1.33-.86,2.74-1.43,4.3l-2,5.5h-1.11l-1.83-5.4c-.53-1.59-1-3.05-1.31-4.4h0c0,1.41-.12,3.31-.22,5l-.3,4.85h-1.4l.79-11.32h1.87l1.93,5.48c.47,1.39.86,2.63,1.14,3.81H120c.29-1.14.69-2.38,1.2-3.81l2-5.48h1.87l.7,11.32h-1.43Z" style="fill:#fff"/><path d="M128.07,43.23h1.46v10.1h4.84v1.22h-6.3Z" style="fill:#fff"/><rect x="336.75" y="126.16" width="49.66" height="49.66" rx="8.96" style="fill:#70e5ff"/><path d="M379.62,126.43c-8.34,15.63-15.37,32.26-29.84,43.36a59.75,59.75,0,0,1-7.93,5.13,8.8,8.8,0,0,0,3.86.9h31.74a9,9,0,0,0,9-9V135.12A9,9,0,0,0,379.62,126.43Z" style="fill:#ff75fe;opacity:0.56;mix-blend-mode:multiply"/><path d="M346.8,150.73l8.32-4.28v1.23l-7,3.52v0l7,3.52V156l-8.32-4.29Z" style="fill:#fff"/><path d="M356.29,156.7l5-13h1.22l-5,13Z" style="fill:#fff"/><path d="M372,151.72,363.64,156v-1.24l7.07-3.52v0l-7.07-3.52v-1.23l8.32,4.26Z" style="fill:#fff"/><rect x="174.05" y="58.49" width="45.84" height="45.84" rx="8.27" style="fill:#ffd359"/><path d="M213.62,58.74c-7.7,14.42-14.19,29.78-27.54,40a55.38,55.38,0,0,1-7.33,4.74,8.24,8.24,0,0,0,3.57.82h29.3a8.29,8.29,0,0,0,8.27-8.27V66.76A8.31,8.31,0,0,0,213.62,58.74Z" style="fill:#ff75fe;opacity:0.56;mix-blend-mode:multiply"/><path d="M188.65,88a8.54,8.54,0,0,1-3.53.64c-3.77,0-6.61-2.38-6.61-6.77a6.66,6.66,0,0,1,7-7,7.15,7.15,0,0,1,3.18.6l-.42,1.4a6.4,6.4,0,0,0-2.7-.55c-3.13,0-5.21,2-5.21,5.51,0,3.28,1.88,5.38,5.13,5.38a6.83,6.83,0,0,0,2.82-.56Z" style="fill:#fff"/><path d="M190.58,86.32a6.15,6.15,0,0,0,3.09.87c1.77,0,2.8-.93,2.8-2.28s-.72-2-2.52-2.66c-2.18-.77-3.53-1.9-3.53-3.79,0-2.08,1.72-3.63,4.32-3.63a6.07,6.07,0,0,1,3,.66l-.48,1.4a5.41,5.41,0,0,0-2.54-.63c-1.82,0-2.52,1.09-2.52,2,0,1.25.82,1.87,2.66,2.58,2.26.87,3.41,2,3.41,3.93s-1.52,3.85-4.68,3.85a6.84,6.84,0,0,1-3.41-.86Z" style="fill:#fff"/><path d="M200.36,86.32a6.15,6.15,0,0,0,3.09.87c1.77,0,2.8-.93,2.8-2.28s-.71-2-2.52-2.66c-2.18-.77-3.53-1.9-3.53-3.79,0-2.08,1.73-3.63,4.32-3.63a6.07,6.07,0,0,1,3,.66l-.48,1.4a5.41,5.41,0,0,0-2.54-.63c-1.82,0-2.51,1.09-2.51,2,0,1.25.81,1.87,2.65,2.58,2.26.87,3.42,2,3.42,3.93s-1.53,3.85-4.69,3.85a6.87,6.87,0,0,1-3.41-.86Z" style="fill:#fff"/><path d="M267.85,156.89H210.1a5.58,5.58,0,0,1-5.57-5.56h0a5.58,5.58,0,0,1,5.57-5.57h57.75a5.58,5.58,0,0,1,5.57,5.57h0A5.58,5.58,0,0,1,267.85,156.89Z" style="fill:#ccc2fe"/><path d="M418.21,245.59H360.46a5.59,5.59,0,0,1-5.57-5.57h0a5.59,5.59,0,0,1,5.57-5.57h57.75a5.59,5.59,0,0,1,5.57,5.57h0A5.59,5.59,0,0,1,418.21,245.59Z" style="fill:#ccc2fe"/><path d="M273.17,137.62H225.94a6.07,6.07,0,0,1-6.05-6.05h0a6.06,6.06,0,0,1,6.05-6h47.23a6.06,6.06,0,0,1,6.05,6h0A6.07,6.07,0,0,1,273.17,137.62Z" style="fill:#ccc2fe"/><path d="M423.82,225.47H376.58a6.06,6.06,0,0,1-6-6.05h0a6.06,6.06,0,0,1,6-6h47.24a6.06,6.06,0,0,1,6,6h0A6.06,6.06,0,0,1,423.82,225.47Z" style="fill:#ccc2fe"/><path d="M360.31,201.24H342.13a5.92,5.92,0,0,1-5.91-5.9h0a5.93,5.93,0,0,1,5.91-5.91h18.18a5.93,5.93,0,0,1,5.91,5.91h0A5.92,5.92,0,0,1,360.31,201.24Z" style="fill:#8b77e8"/><path d="M399,201.24H380.77a5.92,5.92,0,0,1-5.91-5.9h0a5.93,5.93,0,0,1,5.91-5.91H399a5.93,5.93,0,0,1,5.91,5.91h0A5.92,5.92,0,0,1,399,201.24Z" style="fill:#8b77e8"/><path d="M422,175.16H403.79a5.92,5.92,0,0,1-5.91-5.9h0a5.93,5.93,0,0,1,5.91-5.91H422a5.92,5.92,0,0,1,5.9,5.91h0A5.91,5.91,0,0,1,422,175.16Z" style="fill:#ccc2fe"/><path d="M319.5,112.66H301.31a5.92,5.92,0,0,1-5.9-5.91h0a5.91,5.91,0,0,1,5.9-5.9H319.5a5.92,5.92,0,0,1,5.91,5.9h0A5.93,5.93,0,0,1,319.5,112.66Z" style="fill:#ccc2fe"/><rect x="255.92" y="100.66" width="30" height="11.81" rx="5.91" style="fill:#ccc2fe"/><path d="M393.41,311.34H375.22a5.93,5.93,0,0,1-5.91-5.91h0a5.93,5.93,0,0,1,5.91-5.91h18.19a5.92,5.92,0,0,1,5.9,5.91h0A5.92,5.92,0,0,1,393.41,311.34Z" style="fill:#ccc2fe"/><rect x="294.06" y="125.75" width="30" height="11.81" rx="5.91" style="fill:#8b77e8"/><path d="M337,93.71H318.8a5.93,5.93,0,0,1-5.91-5.91h0a5.93,5.93,0,0,1,5.91-5.9H337a5.93,5.93,0,0,1,5.91,5.9h0A5.93,5.93,0,0,1,337,93.71Z" style="fill:#8b77e8"/><rect x="389.86" y="254.57" width="30" height="11.81" rx="5.91" style="fill:#8b77e8"/><rect x="274.27" y="301.11" width="41.82" height="43.03" rx="7.65" style="fill:#fcddfc"/><path d="M254.2,17.85h29.73a8.39,8.39,0,0,1,8.39,8.39V56a8.4,8.4,0,0,1-8.4,8.4H254.2A8.39,8.39,0,0,1,245.81,56V26.25A8.39,8.39,0,0,1,254.2,17.85Z" style="fill:#ff75fe"/><path d="M286,18.12c-7.82,14.63-14.4,30.22-28,40.61a56.67,56.67,0,0,1-7.44,4.81,8.34,8.34,0,0,0,3.62.84h29.74a8.42,8.42,0,0,0,8.39-8.4V26.25A8.41,8.41,0,0,0,286,18.12Z" style="fill:#ff75fe;opacity:0.56;mix-blend-mode:multiply"/><path d="M250.94,40.61a17.93,17.93,0,0,1,3-.24,5,5,0,0,1,3.44,1A3.3,3.3,0,0,1,258.49,44a3.61,3.61,0,0,1-.95,2.62,5.08,5.08,0,0,1-3.75,1.35,5.46,5.46,0,0,1-1.27-.11v4.91h-1.58Zm1.58,5.91a5.35,5.35,0,0,0,1.31.13c1.91,0,3.08-.93,3.08-2.62s-1.15-2.4-2.9-2.4a6.91,6.91,0,0,0-1.49.12Z" style="fill:#fff"/><path d="M262.21,40.46V45.6h5.93V40.46h1.61V52.73h-1.61V47h-5.93v5.75h-1.58V40.46Z" style="fill:#fff"/><path d="M272.5,40.61a17.93,17.93,0,0,1,3-.24,5,5,0,0,1,3.44,1A3.3,3.3,0,0,1,280.05,44a3.61,3.61,0,0,1-.94,2.62,5.11,5.11,0,0,1-3.75,1.35,5.55,5.55,0,0,1-1.28-.11v4.91H272.5Zm1.58,5.91a5.41,5.41,0,0,0,1.31.13c1.91,0,3.08-.93,3.08-2.62s-1.15-2.4-2.89-2.4a7,7,0,0,0-1.5.12Z" style="fill:#fff"/><rect x="256.3" y="151.19" width="45.84" height="45.84" rx="8.27" style="fill:#ffd359"/><path d="M295.87,151.45c-7.7,14.42-14.19,29.78-27.54,40a55.38,55.38,0,0,1-7.33,4.74,8.24,8.24,0,0,0,3.57.82h29.3a8.29,8.29,0,0,0,8.27-8.27v-29.3A8.3,8.3,0,0,0,295.87,151.45Z" style="fill:#ff75fe;opacity:0.56;mix-blend-mode:multiply"/><path d="M266.63,175.59c1.83,0,2.09-1,2.09-1.91a15.79,15.79,0,0,0-.21-2.16,15.5,15.5,0,0,1-.21-2.14c0-2.37,1.55-3.37,3.74-3.37h.54v1.42h-.47c-1.52,0-2,.82-2,2.21a11.68,11.68,0,0,0,.18,1.83,12.29,12.29,0,0,1,.18,1.95,2.45,2.45,0,0,1-1.85,2.78v.05c1.16.29,1.88,1.16,1.85,2.81a12.09,12.09,0,0,1-.18,2,11.82,11.82,0,0,0-.18,1.85c0,1.44.59,2.24,2,2.24h.47v1.42H272c-2.14,0-3.74-.93-3.74-3.53a14.93,14.93,0,0,1,.21-2.11,14.8,14.8,0,0,0,.21-2.09c0-.79-.26-1.9-2.09-1.9Z" style="fill:#fff"/><path d="M291.81,176.9c-1.83,0-2.09,1.1-2.09,1.9a14.8,14.8,0,0,0,.21,2.09,14.92,14.92,0,0,1,.2,2.11c0,2.6-1.59,3.52-3.73,3.52h-.54v-1.41h.46c1.45,0,2-.8,2-2.24a11.82,11.82,0,0,0-.18-1.85,12.2,12.2,0,0,1-.18-2c0-1.65.69-2.52,1.85-2.81v-.05a2.45,2.45,0,0,1-1.85-2.78,12.29,12.29,0,0,1,.18-1.95,11.68,11.68,0,0,0,.18-1.83c0-1.39-.52-2.22-2-2.22h-.46V166h.54c2.19,0,3.73,1,3.73,3.37a15.48,15.48,0,0,1-.2,2.14,15.79,15.79,0,0,0-.21,2.16c0,.9.26,1.9,2.09,1.9Z" style="fill:#fff"/><path d="M379.67,379.19H173.72a.75.75,0,0,0-.75.76h0a.75.75,0,0,0,.75.75h206a.76.76,0,0,0,.75-.75h0A.76.76,0,0,0,379.67,379.19Z" style="fill:#8b77e8"/><rect x="269.7" y="385.27" width="63.2" height="1.5" rx="0.41" style="fill:#ccc2fe"/><rect x="337.71" y="385.27" width="63.2" height="1.5" rx="0.41" style="fill:#ccc2fe"/><rect x="199.88" y="385.27" width="63.2" height="1.5" rx="0.41" style="fill:#ccc2fe"/><rect x="242.88" y="389.52" width="136.34" height="1.5" rx="0.61" style="fill:#ccc2fe"/><rect x="205.25" y="395.84" width="136.34" height="1.5" rx="0.61" style="fill:#ccc2fe"/><polyline points="90.26 358.52 66.42 358.52 66.42 290.9" style="fill:none;stroke:#96fffa;stroke-miterlimit:10;stroke-width:2px"/><circle cx="65.87" cy="289.9" r="2.62" style="fill:#96fffa"/><circle cx="90.26" cy="358.52" r="2.62" style="fill:#96fffa"/><polyline points="432.06 360.83 408.21 360.83 408.21 293.21" style="fill:none;stroke:#96fffa;stroke-miterlimit:10;stroke-width:2px"/><circle cx="407.67" cy="292.21" r="2.62" style="fill:#96fffa"/><circle cx="432.06" cy="360.83" r="2.62" style="fill:#96fffa"/><circle cx="32.88" cy="242.95" r="2.62" style="fill:#96fffa"/><circle cx="7.63" cy="289.33" r="2.62" style="fill:#96fffa"/><polyline points="32.88 244.27 32.88 289.9 8.72 289.9" style="fill:none;stroke:#96fffa;stroke-miterlimit:10;stroke-width:2px"/><circle cx="27.88" cy="128.57" r="2.62" style="fill:#96fffa"/><circle cx="2.63" cy="174.95" r="2.62" style="fill:#96fffa"/><polyline points="27.88 129.89 27.88 175.52 3.71 175.52" style="fill:none;stroke:#96fffa;stroke-miterlimit:10;stroke-width:2px"/><circle cx="256.35" cy="27.88" r="2.62" style="fill:#96fffa"/><circle cx="209.98" cy="2.63" r="2.62" style="fill:#96fffa"/><polyline points="255.03 27.88 209.41 27.88 209.41 3.71" style="fill:none;stroke:#96fffa;stroke-miterlimit:10;stroke-width:2px"/><circle cx="389.84" cy="10.65" r="2.62" style="fill:#96fffa"/><circle cx="364.59" cy="57.02" r="2.63" style="fill:#96fffa"/><polyline points="389.84 11.97 389.84 57.59 365.68 57.59" style="fill:none;stroke:#96fffa;stroke-miterlimit:10;stroke-width:2px"/></g></svg>