<svg xmlns="http://www.w3.org/2000/svg" xmlns:xlink="http://www.w3.org/1999/xlink" viewBox="0 0 200 400"><defs><linearGradient id="a" x1="13.54" y1="-14.61" x2="216.74" y2="489.77" gradientUnits="userSpaceOnUse"><stop offset="0.08" stop-color="#fff"/><stop offset="1" stop-color="#dbe1e2"/></linearGradient><linearGradient id="b" x1="75.66" y1="-44.74" x2="282.06" y2="467.58" xlink:href="#a"/></defs><title>mockup</title><rect width="200" height="400" rx="33.11" style="fill:url(#a)"/><rect x="66.78" y="374.51" width="62.12" height="2.41" rx="1.03" style="fill:#e0e6e9"/><path d="M46.56,5.77v5.49A11.17,11.17,0,0,0,57.77,22.38h78.6a11.17,11.17,0,0,0,11.21-11.12V3.39Z" style="fill:url(#b)"/><g style="opacity:0.46"><path d="M154.07,16.78a.45.45,0,1,1,0,.9.45.45,0,1,1,0-.9Z" style="fill:#251a51"/><path d="M155.15,16.15l0,0,0,0h0a1.49,1.49,0,0,0-2,0l-.06.06-.09.09a.28.28,0,0,0,.4.4l.16-.15a.91.91,0,0,1,1.29,0l.11.1a.28.28,0,0,0,.4,0,.24.24,0,0,0,.08-.19.24.24,0,0,0-.08-.2Z" style="fill:#251a51"/><path d="M155.93,15.59l-.1-.09h0l-.07-.08,0,0a2.48,2.48,0,0,0-3.33.07l0,0-.17.16a.26.26,0,0,0,.37.37l.17-.17h0a2,2,0,0,1,2.69,0l.14.13a.25.25,0,0,0,.36,0A.25.25,0,0,0,155.93,15.59Z" style="fill:#251a51"/></g><g style="opacity:0.48"><path d="M26.29,18a.12.12,0,0,1-.13-.12V15.42l.05,0-.57.34h-.06a.11.11,0,0,1-.09,0,.12.12,0,0,1,0-.09s0-.07.07-.1l.7-.42a.16.16,0,0,1,.1,0l.08,0a.12.12,0,0,1,0,.09V17.9a.18.18,0,0,1,0,.09A.17.17,0,0,1,26.29,18Z" style="fill:#251a51"/><path d="M28.05,18.07a.83.83,0,0,1-.56-.2,1.22,1.22,0,0,1-.34-.54,2.61,2.61,0,0,1,0-1.5,1.19,1.19,0,0,1,.34-.53.88.88,0,0,1,1.12,0,1.1,1.1,0,0,1,.33.53,2.4,2.4,0,0,1,0,1.5,1.13,1.13,0,0,1-.33.54A.83.83,0,0,1,28.05,18.07Zm0-.26a.59.59,0,0,0,.41-.15,1,1,0,0,0,.25-.43,2.51,2.51,0,0,0,.08-.65,2.57,2.57,0,0,0-.08-.65,1.06,1.06,0,0,0-.25-.43.64.64,0,0,0-.82,0,1.06,1.06,0,0,0-.25.43,2.57,2.57,0,0,0-.08.65,2.51,2.51,0,0,0,.08.65,1,1,0,0,0,.25.43A.59.59,0,0,0,28.05,17.81Z" style="fill:#251a51"/><path d="M29.66,16.31a.14.14,0,0,1-.11,0,.16.16,0,0,1,0-.11v-.09a.21.21,0,0,1,0-.11.14.14,0,0,1,.11,0h0a.16.16,0,0,1,.11,0,.2.2,0,0,1,0,.11v.09a.14.14,0,0,1-.14.16Zm0,1.71a.14.14,0,0,1-.11,0,.21.21,0,0,1,0-.11v-.09a.21.21,0,0,1,0-.12.14.14,0,0,1,.11,0h0a.15.15,0,0,1,.11,0,.21.21,0,0,1,0,.12v.09a.2.2,0,0,1,0,.11.15.15,0,0,1-.11,0Z" style="fill:#251a51"/><path d="M30.42,17.6h0l.05,0a.57.57,0,0,0,.21.13.59.59,0,0,0,.27,0,.75.75,0,0,0,.37-.09.72.72,0,0,0,.27-.25.7.7,0,0,0,.1-.38.63.63,0,0,0-.1-.38.64.64,0,0,0-.27-.22.83.83,0,0,0-.34-.07H30.8a.09.09,0,0,1-.08,0,.12.12,0,0,1,0-.09.09.09,0,0,1,0-.05l0,0,.85-.94.05.07H30.37a.18.18,0,0,1-.09,0,.11.11,0,0,1,0-.08.14.14,0,0,1,0-.09l.09,0h1.39a.13.13,0,0,1,.11,0,.19.19,0,0,1,0,.08.09.09,0,0,1,0,.05l0,0-.84.93-.09-.05.08,0h.12a.91.91,0,0,1,.42.11.8.8,0,0,1,.33.3,1,1,0,0,1,.13.5.92.92,0,0,1-.14.5,1,1,0,0,1-.37.34,1.07,1.07,0,0,1-.51.12,1,1,0,0,1-.34-.06.79.79,0,0,1-.29-.18.07.07,0,0,1,0,0,.08.08,0,0,1,0,0,.13.13,0,0,1,0-.1A.1.1,0,0,1,30.42,17.6Z" style="fill:#251a51"/><path d="M33.45,18.07a.81.81,0,0,1-.55-.2,1.22,1.22,0,0,1-.34-.54,2.61,2.61,0,0,1,0-1.5,1.19,1.19,0,0,1,.34-.53.81.81,0,0,1,.55-.2.84.84,0,0,1,.57.2,1.1,1.1,0,0,1,.33.53,2.61,2.61,0,0,1,0,1.5,1.13,1.13,0,0,1-.33.54A.84.84,0,0,1,33.45,18.07Zm0-.26a.58.58,0,0,0,.41-.15.91.91,0,0,0,.25-.43,2.13,2.13,0,0,0,.09-.65,2.17,2.17,0,0,0-.09-.65,1,1,0,0,0-.25-.43.58.58,0,0,0-.41-.15.57.57,0,0,0-.4.15,1.06,1.06,0,0,0-.25.43,2.17,2.17,0,0,0-.09.65,2.13,2.13,0,0,0,.09.65,1,1,0,0,0,.25.43A.57.57,0,0,0,33.45,17.81Z" style="fill:#251a51"/><path d="M37.19,15.46l-1,2.49,0,.06-.06,0A.12.12,0,0,1,36,18a.11.11,0,0,1,0-.08,0,0,0,0,1,0-.05l1.1-2.66a.1.1,0,0,1,.05-.06l.07,0,.07,0,0,.06,1.09,2.65a.09.09,0,0,1,0,.05.1.1,0,0,1,0,.09.11.11,0,0,1-.08,0l-.08,0,0-.06-1-2.51Zm-.77,1.73.1-.24h1.29l0,.24Z" style="fill:#251a51"/><path d="M39,15.14h.06a.12.12,0,0,1,0,0l1.15,1.7h-.12l1.15-1.7a.12.12,0,0,1,.12-.06.09.09,0,0,1,.08,0,.13.13,0,0,1,0,.09V17.9a.18.18,0,0,1,0,.09.16.16,0,0,1-.09,0,.17.17,0,0,1-.1,0,.18.18,0,0,1,0-.09V15.52h.08l-1,1.57a.08.08,0,0,1,0,0h-.11a.1.1,0,0,1-.05,0l-1-1.59.08-.06V17.9A.12.12,0,0,1,39,18a.11.11,0,0,1-.08,0,.12.12,0,0,1,0-.09V15.27a.14.14,0,0,1,.13-.13Z" style="fill:#251a51"/></g><g style="opacity:0.48"><path d="M159.71,16.28v0a.58.58,0,0,1,.25.15.84.84,0,0,1,.18.23.74.74,0,0,1,0,.68,1,1,0,0,1-.3.27.91.91,0,0,1-.43.1.88.88,0,0,1-.43-.1.79.79,0,0,1-.3-.27.66.66,0,0,1-.12-.38.74.74,0,0,1,.07-.31.84.84,0,0,1,.18-.23,1,1,0,0,1,.24-.14l0,0a.85.85,0,0,1-.19-.14.8.8,0,0,1-.15-.21.6.6,0,0,1-.06-.27.7.7,0,0,1,.1-.38A.9.9,0,0,1,159,15a.87.87,0,0,1,.4-.09.86.86,0,0,1,.39.09.81.81,0,0,1,.28.27.7.7,0,0,1,.1.38.6.6,0,0,1-.06.27.8.8,0,0,1-.15.21A.63.63,0,0,1,159.71,16.28Zm-.36,1.18a.63.63,0,0,0,.43-.15.5.5,0,0,0,.17-.38.51.51,0,0,0-.08-.28.65.65,0,0,0-.82-.2.53.53,0,0,0-.22.2.45.45,0,0,0-.09.28.5.5,0,0,0,.17.38A.63.63,0,0,0,159.35,17.46Zm-.54-1.79a.53.53,0,0,0,.54.52.48.48,0,0,0,.26-.07.48.48,0,0,0,.27-.45.5.5,0,0,0-.15-.38.56.56,0,0,0-.38-.14.56.56,0,0,0-.39.14A.5.5,0,0,0,158.81,15.67Z" style="fill:#251a51"/><path d="M161.34,17.66a1.26,1.26,0,0,1-.33-.05,1,1,0,0,1-.28-.16.1.1,0,0,1,0-.05.08.08,0,0,1,0,0,.1.1,0,0,1,0-.08.1.1,0,0,1,.08,0,.16.16,0,0,1,.09,0,.78.78,0,0,0,.22.12.69.69,0,0,0,.24.05.87.87,0,0,0,.4-.09.75.75,0,0,0,.27-.26.72.72,0,0,0,.09-.37.63.63,0,0,0-.08-.34.56.56,0,0,0-.25-.23.72.72,0,0,0-.37-.09.71.71,0,0,0-.26.05,1,1,0,0,0-.21.09l-.11,0a.15.15,0,0,1-.08,0,.13.13,0,0,1-.05-.06.11.11,0,0,1,0-.08l.16-1.06,0-.06a.12.12,0,0,1,.09,0h1.18a.11.11,0,0,1,.08.19.09.09,0,0,1-.08,0H161l0,0-.16,1-.07-.05a.58.58,0,0,1,.14-.08l.22-.07a1,1,0,0,1,.71.08.87.87,0,0,1,.43.76,1,1,0,0,1-.07.39,1,1,0,0,1-.21.3,1.08,1.08,0,0,1-.31.19A1.1,1.1,0,0,1,161.34,17.66Z" style="fill:#251a51"/><path d="M163.33,16.32a.49.49,0,0,1-.3-.1.61.61,0,0,1-.18-.26,1,1,0,0,1-.06-.35,1,1,0,0,1,.06-.36A.61.61,0,0,1,163,15a.48.48,0,0,1,.29-.09.49.49,0,0,1,.3.09.68.68,0,0,1,.18.26,1,1,0,0,1,.06.36,1,1,0,0,1-.06.35.61.61,0,0,1-.18.26A.49.49,0,0,1,163.33,16.32Zm0-.21a.25.25,0,0,0,.25-.14.77.77,0,0,0,.07-.36.81.81,0,0,0-.08-.37.28.28,0,0,0-.24-.14.25.25,0,0,0-.24.15.77.77,0,0,0-.07.36.64.64,0,0,0,.08.36A.24.24,0,0,0,163.33,16.11Zm-.05,1.56a.12.12,0,0,1-.11-.11.14.14,0,0,1,0-.06L164.88,15a.09.09,0,0,1,.08-.06.1.1,0,0,1,.11.11.14.14,0,0,1,0,.06l-1.68,2.53A.1.1,0,0,1,163.28,17.67Zm1.67,0a.49.49,0,0,1-.3-.1.61.61,0,0,1-.18-.26,1,1,0,0,1-.06-.35,1,1,0,0,1,.06-.36.55.55,0,0,1,.19-.26.48.48,0,0,1,.29-.1.49.49,0,0,1,.3.1.61.61,0,0,1,.18.26,1,1,0,0,1,.06.36.84.84,0,0,1-.07.35.61.61,0,0,1-.18.26A.48.48,0,0,1,165,17.69Zm0-.21a.26.26,0,0,0,.24-.14.8.8,0,0,0,.08-.36.81.81,0,0,0-.08-.37.26.26,0,0,0-.24-.14.26.26,0,0,0-.24.14.81.81,0,0,0-.08.37.77.77,0,0,0,.08.36A.26.26,0,0,0,165,17.48Z" style="fill:#251a51"/><path d="M169.45,18a.35.35,0,0,1-.36-.33V15.16a.34.34,0,0,1,.35-.33h6a.35.35,0,0,1,.36.33v.52h.46v1.5h-.46v.52a.35.35,0,0,1-.35.33Zm6.06-3h-6.17V17.8h6.17Zm-5.93.27h4.49v2.22h-4.49Z" style="fill:#251a51"/></g></svg>