<svg xmlns="http://www.w3.org/2000/svg" xmlns:xlink="http://www.w3.org/1999/xlink" viewBox="0 0 200 400"><defs><linearGradient id="a" x1="96.04" y1="-17.94" x2="98.76" y2="131.88" gradientUnits="userSpaceOnUse"><stop offset="0.08" stop-color="#fff"/><stop offset="1" stop-color="#dbe1e2"/></linearGradient><linearGradient id="b" x1="39.77" y1="339.27" x2="169.81" y2="358.64" gradientUnits="userSpaceOnUse"><stop offset="0" stop-color="#d7a584"/><stop offset="1" stop-color="#e0557f"/></linearGradient><linearGradient id="c" x1="140.75" y1="231.25" x2="118.91" y2="110.95" gradientUnits="userSpaceOnUse"><stop offset="0.05" stop-color="#6bc1cd"/><stop offset="1" stop-color="#a8eba4"/></linearGradient><clipPath id="d"><rect x="11.46" y="9.75" width="177.08" height="380.51" rx="26.11" style="fill:none"/></clipPath><linearGradient id="e" x1="78.59" y1="-46.83" x2="284.99" y2="465.48" xlink:href="#a"/></defs><title>screen-2</title><g style="isolation:isolate"><rect width="200" height="400" rx="33.11" style="fill:url(#a)"/><rect x="11.46" y="9.75" width="177.08" height="380.51" rx="26.11" style="fill:#fff"/><path d="M25.43,286.51h.35V291h2.79v.32H25.43Z" style="fill:#939393"/><path d="M30.14,291.11a1.63,1.63,0,0,1-.65-.65,1.81,1.81,0,0,1-.24-.93,1.85,1.85,0,0,1,.24-.94,1.69,1.69,0,0,1,.65-.65,1.87,1.87,0,0,1,.92-.23,1.94,1.94,0,0,1,.93.23,1.67,1.67,0,0,1,.64.65,1.85,1.85,0,0,1,.24.94,1.81,1.81,0,0,1-.24.93,1.6,1.6,0,0,1-.64.65,1.84,1.84,0,0,1-.93.24A1.78,1.78,0,0,1,30.14,291.11Zm1.67-.26a1.42,1.42,0,0,0,.52-.54,1.72,1.72,0,0,0,0-1.57,1.47,1.47,0,0,0-.52-.53,1.56,1.56,0,0,0-1.49,0,1.47,1.47,0,0,0-.52.53,1.72,1.72,0,0,0,0,1.57,1.42,1.42,0,0,0,.52.54,1.56,1.56,0,0,0,1.49,0Z" style="fill:#939393"/><path d="M35.14,287.92a1.66,1.66,0,0,1,.86-.21V288h-.08a1.21,1.21,0,0,0-1,.37,1.53,1.53,0,0,0-.34,1v1.87h-.34v-3.59h.33v.79A1.22,1.22,0,0,1,35.14,287.92Z" style="fill:#939393"/><path d="M40.32,289.61H37.21a1.4,1.4,0,0,0,.22.74,1.33,1.33,0,0,0,.54.51,1.65,1.65,0,0,0,.77.18,1.76,1.76,0,0,0,.66-.13,1.31,1.31,0,0,0,.5-.37l.2.22a1.58,1.58,0,0,1-.59.43,1.85,1.85,0,0,1-.78.16,1.9,1.9,0,0,1-1-.24,1.69,1.69,0,0,1-.66-.64,1.85,1.85,0,0,1-.24-.94,2,2,0,0,1,.23-.94,1.62,1.62,0,0,1,.62-.65,1.75,1.75,0,0,1,.88-.23,1.67,1.67,0,0,1,.89.23,1.63,1.63,0,0,1,.61.64,1.91,1.91,0,0,1,.23.93Zm-2.4-1.43a1.23,1.23,0,0,0-.49.47,1.59,1.59,0,0,0-.21.69H40a1.64,1.64,0,0,0-.21-.69,1.38,1.38,0,0,0-.49-.47,1.47,1.47,0,0,0-1.37,0Z" style="fill:#939393"/><path d="M47.3,288.1a1.52,1.52,0,0,1,.39,1.13v2.09h-.35v-2.07a1.29,1.29,0,0,0-.3-.92,1.06,1.06,0,0,0-.83-.31,1.25,1.25,0,0,0-1,.37,1.43,1.43,0,0,0-.36,1v1.91h-.35v-2.07a1.33,1.33,0,0,0-.29-.92,1.09,1.09,0,0,0-.83-.31,1.27,1.27,0,0,0-1,.37,1.43,1.43,0,0,0-.36,1v1.91h-.34v-3.59h.33v.77a1.32,1.32,0,0,1,.54-.58,1.61,1.61,0,0,1,.84-.21,1.5,1.5,0,0,1,.84.22,1.18,1.18,0,0,1,.49.64,1.42,1.42,0,0,1,.56-.63,1.77,1.77,0,0,1,.9-.23A1.4,1.4,0,0,1,47.3,288.1Z" style="fill:#939393"/><path d="M51.56,286.78a.22.22,0,0,1-.08-.19.27.27,0,0,1,.28-.28.26.26,0,0,1,.2.08.22.22,0,0,1,.08.19.24.24,0,0,1-.08.2.26.26,0,0,1-.2.08A.24.24,0,0,1,51.56,286.78Zm0,1h.34v3.59h-.34Z" style="fill:#939393"/><path d="M56.47,287.94a1.74,1.74,0,0,1,.64.65,1.9,1.9,0,0,1,.23.94,2,2,0,0,1-.23.94,1.74,1.74,0,0,1-.64.65,1.86,1.86,0,0,1-.91.23,1.71,1.71,0,0,1-.87-.23,1.49,1.49,0,0,1-.6-.62v2.15h-.35v-4.92h.33v.85a1.64,1.64,0,0,1,1.49-.87A1.86,1.86,0,0,1,56.47,287.94Zm-.19,2.91a1.35,1.35,0,0,0,.52-.54,1.72,1.72,0,0,0,0-1.57,1.39,1.39,0,0,0-.52-.53,1.56,1.56,0,0,0-1.49,0,1.47,1.47,0,0,0-.52.53,1.72,1.72,0,0,0,0,1.57,1.42,1.42,0,0,0,.52.54,1.56,1.56,0,0,0,1.49,0Z" style="fill:#939393"/><path d="M58.84,291.22a1.74,1.74,0,0,1-.61-.33l.16-.28a1.7,1.7,0,0,0,.57.31,2.19,2.19,0,0,0,.73.12,1.51,1.51,0,0,0,.8-.17.56.56,0,0,0,.26-.5.45.45,0,0,0-.14-.36.91.91,0,0,0-.35-.19l-.57-.13a4.48,4.48,0,0,1-.69-.16,1.06,1.06,0,0,1-.45-.29.75.75,0,0,1-.19-.55.85.85,0,0,1,.36-.7,1.56,1.56,0,0,1,1-.28,2.59,2.59,0,0,1,.68.09,1.72,1.72,0,0,1,.56.26l-.16.27a2,2,0,0,0-.51-.24,2.25,2.25,0,0,0-.58-.08,1.33,1.33,0,0,0-.76.18.59.59,0,0,0-.26.49.49.49,0,0,0,.15.38,1,1,0,0,0,.36.2c.14,0,.33.09.59.14a4.6,4.6,0,0,1,.68.16,1,1,0,0,1,.44.28.71.71,0,0,1,.18.52.84.84,0,0,1-.37.72,1.79,1.79,0,0,1-1.06.27A2.88,2.88,0,0,1,58.84,291.22Z" style="fill:#939393"/><path d="M65.58,287.73v3.59h-.33v-.77a1.38,1.38,0,0,1-.53.59,1.63,1.63,0,0,1-.83.21,1.39,1.39,0,0,1-1.51-1.52v-2.1h.34v2.07a1.29,1.29,0,0,0,.31.92,1.19,1.19,0,0,0,.88.32,1.28,1.28,0,0,0,1-.38,1.41,1.41,0,0,0,.36-1v-1.91Z" style="fill:#939393"/><path d="M73,288.1a1.52,1.52,0,0,1,.39,1.13v2.09H73v-2.07a1.29,1.29,0,0,0-.3-.92,1.06,1.06,0,0,0-.83-.31,1.27,1.27,0,0,0-1,.37,1.43,1.43,0,0,0-.36,1v1.91h-.35v-2.07a1.29,1.29,0,0,0-.29-.92,1.09,1.09,0,0,0-.83-.31,1.27,1.27,0,0,0-1,.37,1.43,1.43,0,0,0-.36,1v1.91H67.4v-3.59h.33v.77a1.32,1.32,0,0,1,.54-.58,1.61,1.61,0,0,1,.84-.21,1.5,1.5,0,0,1,.84.22,1.18,1.18,0,0,1,.49.64,1.42,1.42,0,0,1,.56-.63,1.77,1.77,0,0,1,.9-.23A1.39,1.39,0,0,1,73,288.1Z" style="fill:#939393"/><path d="M80.45,286.22v5.1h-.34v-.85a1.51,1.51,0,0,1-.6.65,1.72,1.72,0,0,1-.88.23,1.8,1.8,0,0,1-.92-.24,1.71,1.71,0,0,1-.64-.64,2.06,2.06,0,0,1,0-1.89,1.71,1.71,0,0,1,.64-.64,1.8,1.8,0,0,1,.92-.23,1.71,1.71,0,0,1,.87.22,1.68,1.68,0,0,1,.6.64v-2.35Zm-1.06,4.63a1.35,1.35,0,0,0,.52-.54,1.72,1.72,0,0,0,0-1.57,1.39,1.39,0,0,0-.52-.53,1.41,1.41,0,0,0-.74-.19,1.37,1.37,0,0,0-1.26.72,1.64,1.64,0,0,0,0,1.57,1.4,1.4,0,0,0,.51.54,1.55,1.55,0,0,0,.75.19A1.51,1.51,0,0,0,79.39,290.85Z" style="fill:#939393"/><path d="M82.74,291.11a1.6,1.6,0,0,1-.64-.65,1.81,1.81,0,0,1-.24-.93,1.85,1.85,0,0,1,.24-.94,1.67,1.67,0,0,1,.64-.65,1.94,1.94,0,0,1,.93-.23,1.87,1.87,0,0,1,.92.23,1.69,1.69,0,0,1,.65.65,1.85,1.85,0,0,1,.24.94,1.81,1.81,0,0,1-.24.93,1.63,1.63,0,0,1-.65.65,1.78,1.78,0,0,1-.92.24A1.84,1.84,0,0,1,82.74,291.11Zm1.67-.26a1.35,1.35,0,0,0,.52-.54,1.72,1.72,0,0,0,0-1.57,1.39,1.39,0,0,0-.52-.53,1.41,1.41,0,0,0-.74-.19,1.44,1.44,0,0,0-.75.19,1.47,1.47,0,0,0-.52.53,1.72,1.72,0,0,0,0,1.57,1.42,1.42,0,0,0,.52.54,1.55,1.55,0,0,0,.75.19A1.51,1.51,0,0,0,84.41,290.85Z" style="fill:#939393"/><path d="M86.9,286.22h.34v5.1H86.9Z" style="fill:#939393"/><path d="M89.54,291.11a1.63,1.63,0,0,1-.65-.65,1.81,1.81,0,0,1-.24-.93,1.85,1.85,0,0,1,.24-.94,1.69,1.69,0,0,1,.65-.65,1.87,1.87,0,0,1,.92-.23,1.94,1.94,0,0,1,.93.23,1.67,1.67,0,0,1,.64.65,1.85,1.85,0,0,1,.24.94,1.81,1.81,0,0,1-.24.93,1.6,1.6,0,0,1-.64.65,1.84,1.84,0,0,1-.93.24A1.78,1.78,0,0,1,89.54,291.11Zm1.67-.26a1.42,1.42,0,0,0,.52-.54,1.72,1.72,0,0,0,0-1.57,1.47,1.47,0,0,0-.52-.53,1.56,1.56,0,0,0-1.49,0,1.39,1.39,0,0,0-.52.53,1.72,1.72,0,0,0,0,1.57,1.35,1.35,0,0,0,.52.54,1.56,1.56,0,0,0,1.49,0Z" style="fill:#939393"/><path d="M94.54,287.92a1.66,1.66,0,0,1,.86-.21V288h-.08a1.21,1.21,0,0,0-.95.37,1.53,1.53,0,0,0-.34,1v1.87h-.34v-3.59H94v.79A1.27,1.27,0,0,1,94.54,287.92Z" style="fill:#939393"/><path d="M99,291.22a1.74,1.74,0,0,1-.61-.33l.16-.28a1.7,1.7,0,0,0,.57.31,2.19,2.19,0,0,0,.73.12,1.51,1.51,0,0,0,.8-.17.56.56,0,0,0,.26-.5.45.45,0,0,0-.14-.36.91.91,0,0,0-.35-.19l-.57-.13a5,5,0,0,1-.7-.16,1.2,1.2,0,0,1-.45-.29.79.79,0,0,1-.18-.55.86.86,0,0,1,.35-.7,1.61,1.61,0,0,1,1-.28,2.59,2.59,0,0,1,.68.09,1.82,1.82,0,0,1,.56.26l-.16.27a2,2,0,0,0-.51-.24,2.25,2.25,0,0,0-.58-.08,1.31,1.31,0,0,0-.76.18.59.59,0,0,0-.26.49.49.49,0,0,0,.15.38,1,1,0,0,0,.36.2c.14,0,.33.09.59.14a4.6,4.6,0,0,1,.68.16,1,1,0,0,1,.44.28.71.71,0,0,1,.18.52.86.86,0,0,1-.37.72,1.79,1.79,0,0,1-1.06.27A2.83,2.83,0,0,1,99,291.22Z" style="fill:#939393"/><path d="M102.52,286.78a.22.22,0,0,1-.08-.19.27.27,0,0,1,.28-.28.26.26,0,0,1,.2.08.22.22,0,0,1,.08.19.24.24,0,0,1-.08.2.26.26,0,0,1-.2.08A.24.24,0,0,1,102.52,286.78Zm0,1h.34v3.59h-.34Z" style="fill:#939393"/><path d="M106.49,291.09a.82.82,0,0,1-.33.19,1.41,1.41,0,0,1-.41.07,1,1,0,0,1-.73-.26,1,1,0,0,1-.25-.72V288h-.67v-.3h.67V287h.34v.78h1.15v.3h-1.15v2.31a.77.77,0,0,0,.17.53.67.67,0,0,0,.51.18.83.83,0,0,0,.56-.2Z" style="fill:#939393"/><path d="M112.18,288.05a1.3,1.3,0,0,1,.36,1v2.27h-.33v-.64a1.27,1.27,0,0,1-.51.49,1.66,1.66,0,0,1-.8.18,1.46,1.46,0,0,1-1-.29.9.9,0,0,1-.35-.74.92.92,0,0,1,.32-.72,1.55,1.55,0,0,1,1-.28h1.24V289a1,1,0,0,0-.27-.76,1.13,1.13,0,0,0-.8-.26,1.88,1.88,0,0,0-1.25.45l-.17-.24a2,2,0,0,1,.65-.38,2.36,2.36,0,0,1,.8-.13A1.44,1.44,0,0,1,112.18,288.05Zm-.46,2.81a1.24,1.24,0,0,0,.47-.6v-.67H111a1.21,1.21,0,0,0-.77.19.65.65,0,0,0-.24.53.66.66,0,0,0,.26.55,1.16,1.16,0,0,0,.74.2A1.36,1.36,0,0,0,111.72,290.86Z" style="fill:#939393"/><path d="M119.87,288.1a1.56,1.56,0,0,1,.38,1.13v2.09h-.34v-2.07a1.29,1.29,0,0,0-.3-.92,1.09,1.09,0,0,0-.83-.31,1.27,1.27,0,0,0-1,.37,1.43,1.43,0,0,0-.36,1v1.91h-.34v-2.07a1.29,1.29,0,0,0-.3-.92A1.08,1.08,0,0,0,116,288a1.27,1.27,0,0,0-1,.37,1.47,1.47,0,0,0-.35,1v1.91h-.35v-3.59h.33v.77a1.32,1.32,0,0,1,.54-.58,1.65,1.65,0,0,1,.85-.21,1.47,1.47,0,0,1,.83.22,1.18,1.18,0,0,1,.49.64,1.44,1.44,0,0,1,.57-.63,1.71,1.71,0,0,1,.89-.23A1.43,1.43,0,0,1,119.87,288.1Z" style="fill:#939393"/><path d="M125.09,289.61H122a1.42,1.42,0,0,0,.75,1.25,1.66,1.66,0,0,0,.78.18,1.75,1.75,0,0,0,.65-.13,1.24,1.24,0,0,0,.5-.37l.2.22a1.44,1.44,0,0,1-.59.43,1.8,1.8,0,0,1-.77.16,1.9,1.9,0,0,1-1-.24,1.63,1.63,0,0,1-.66-.64,1.85,1.85,0,0,1-.24-.94,2,2,0,0,1,.22-.94,1.69,1.69,0,0,1,.62-.65,1.76,1.76,0,0,1,.89-.23,1.63,1.63,0,0,1,.88.23,1.66,1.66,0,0,1,.62.64,1.91,1.91,0,0,1,.22.93Zm-2.41-1.43a1.38,1.38,0,0,0-.49.47,1.59,1.59,0,0,0-.21.69h2.77a1.49,1.49,0,0,0-.2-.69,1.38,1.38,0,0,0-1.18-.64A1.44,1.44,0,0,0,122.68,288.18Z" style="fill:#939393"/><path d="M128.31,291.09a.89.89,0,0,1-.33.19,1.42,1.42,0,0,1-.42.07.9.9,0,0,1-1-1V288h-.66v-.3h.66V287h.35v.78h1.15v.3h-1.15v2.31a.72.72,0,0,0,.17.53.65.65,0,0,0,.5.18.82.82,0,0,0,.56-.2Z" style="fill:#939393"/><path d="M129.85,290.85a.3.3,0,0,1,.08.2.34.34,0,0,1,0,.14,1.49,1.49,0,0,1,0,.18l-.27.93h-.25l.23-1a.32.32,0,0,1-.17-.1.26.26,0,0,1-.06-.18.28.28,0,0,1,.08-.2.29.29,0,0,1,.42,0Z" style="fill:#939393"/><path d="M134,291.11a1.63,1.63,0,0,1-.65-.65,1.81,1.81,0,0,1-.24-.93,1.86,1.86,0,0,1,.24-.95,1.67,1.67,0,0,1,.65-.64,1.85,1.85,0,0,1,.94-.23,1.77,1.77,0,0,1,.8.17,1.44,1.44,0,0,1,.58.49l-.26.18a1.23,1.23,0,0,0-.48-.4A1.5,1.5,0,0,0,135,288a1.44,1.44,0,0,0-.75.19,1.29,1.29,0,0,0-.53.53,1.57,1.57,0,0,0-.19.79,1.59,1.59,0,0,0,.19.79,1.35,1.35,0,0,0,.53.53,1.55,1.55,0,0,0,.75.19,1.5,1.5,0,0,0,.64-.14,1.23,1.23,0,0,0,.48-.4l.26.19a1.53,1.53,0,0,1-.58.49,1.91,1.91,0,0,1-.8.17A1.85,1.85,0,0,1,134,291.11Z" style="fill:#939393"/><path d="M138.16,291.11a1.57,1.57,0,0,1-.65-.65,1.81,1.81,0,0,1-.24-.93,1.85,1.85,0,0,1,.24-.94,1.63,1.63,0,0,1,.65-.65,2,2,0,0,1,1.84,0,1.69,1.69,0,0,1,.65.65,1.85,1.85,0,0,1,.24.94,1.81,1.81,0,0,1-.24.93,1.63,1.63,0,0,1-.65.65,1.88,1.88,0,0,1-1.84,0Zm1.66-.26a1.35,1.35,0,0,0,.52-.54,1.72,1.72,0,0,0,0-1.57,1.39,1.39,0,0,0-.52-.53,1.41,1.41,0,0,0-.74-.19,1.4,1.4,0,0,0-1.26.72,1.72,1.72,0,0,0,0,1.57,1.35,1.35,0,0,0,.52.54,1.48,1.48,0,0,0,.74.19A1.51,1.51,0,0,0,139.82,290.85Z" style="fill:#939393"/><path d="M145.15,288.1a1.52,1.52,0,0,1,.39,1.13v2.09h-.35v-2.07a1.29,1.29,0,0,0-.3-.92A1.17,1.17,0,0,0,144,288a1.34,1.34,0,0,0-1,.37,1.39,1.39,0,0,0-.37,1v1.91h-.34v-3.59h.33v.78a1.33,1.33,0,0,1,.56-.59,1.72,1.72,0,0,1,.87-.21A1.49,1.49,0,0,1,145.15,288.1Z" style="fill:#939393"/><path d="M147.4,291.22a1.8,1.8,0,0,1-.62-.33l.16-.28a1.92,1.92,0,0,0,.57.31,2.24,2.24,0,0,0,.73.12,1.58,1.58,0,0,0,.81-.17.59.59,0,0,0,.26-.5.49.49,0,0,0-.14-.36,1,1,0,0,0-.36-.19c-.13,0-.33-.08-.57-.13a4.48,4.48,0,0,1-.69-.16,1.06,1.06,0,0,1-.45-.29.75.75,0,0,1-.19-.55.85.85,0,0,1,.36-.7,1.58,1.58,0,0,1,1-.28,2.72,2.72,0,0,1,.69.09,1.76,1.76,0,0,1,.55.26l-.16.27a1.93,1.93,0,0,0-.5-.24,2.33,2.33,0,0,0-.59-.08,1.33,1.33,0,0,0-.76.18.58.58,0,0,0-.25.49.52.52,0,0,0,.14.38,1,1,0,0,0,.36.2l.59.14a4.6,4.6,0,0,1,.68.16.93.93,0,0,1,.44.28.71.71,0,0,1,.18.52.84.84,0,0,1-.37.72,1.77,1.77,0,0,1-1.05.27A2.83,2.83,0,0,1,147.4,291.22Z" style="fill:#939393"/><path d="M154,289.61h-3.11a1.5,1.5,0,0,0,.22.74,1.33,1.33,0,0,0,.54.51,1.65,1.65,0,0,0,.77.18,1.76,1.76,0,0,0,.66-.13,1.24,1.24,0,0,0,.5-.37l.2.22a1.5,1.5,0,0,1-.59.43,1.8,1.8,0,0,1-.77.16,1.9,1.9,0,0,1-1-.24,1.65,1.65,0,0,1-.67-.64,1.85,1.85,0,0,1-.24-.94,2,2,0,0,1,.23-.94,1.69,1.69,0,0,1,.62-.65,1.76,1.76,0,0,1,.89-.23,1.67,1.67,0,0,1,1.5.87,1.91,1.91,0,0,1,.22.93Zm-2.4-1.43a1.38,1.38,0,0,0-.49.47,1.59,1.59,0,0,0-.21.69h2.77a1.4,1.4,0,0,0-.21-.69,1.38,1.38,0,0,0-.49-.47,1.47,1.47,0,0,0-1.37,0Z" style="fill:#939393"/><path d="M155.94,291.11a1.63,1.63,0,0,1-.65-.65,1.81,1.81,0,0,1-.24-.93,1.86,1.86,0,0,1,.24-.95,1.67,1.67,0,0,1,.65-.64,1.85,1.85,0,0,1,.94-.23,1.77,1.77,0,0,1,.8.17,1.35,1.35,0,0,1,.57.49l-.25.18a1.23,1.23,0,0,0-.48-.4,1.53,1.53,0,0,0-.64-.13,1.51,1.51,0,0,0-.76.19,1.33,1.33,0,0,0-.52.53,1.57,1.57,0,0,0-.19.79,1.59,1.59,0,0,0,.19.79,1.39,1.39,0,0,0,.52.53,1.61,1.61,0,0,0,.76.19,1.53,1.53,0,0,0,.64-.14,1.23,1.23,0,0,0,.48-.4l.25.19a1.43,1.43,0,0,1-.57.49,1.91,1.91,0,0,1-.8.17A1.85,1.85,0,0,1,155.94,291.11Z" style="fill:#939393"/><path d="M161.48,291.09a.89.89,0,0,1-.33.19,1.42,1.42,0,0,1-.42.07.9.9,0,0,1-1-1V288h-.66v-.3h.66V287h.35v.78h1.15v.3H160.1v2.31a.72.72,0,0,0,.17.53.65.65,0,0,0,.5.18.82.82,0,0,0,.56-.2Z" style="fill:#939393"/><path d="M165.71,289.61H162.6a1.42,1.42,0,0,0,.75,1.25,1.66,1.66,0,0,0,.78.18,1.75,1.75,0,0,0,.65-.13,1.24,1.24,0,0,0,.5-.37l.2.22a1.44,1.44,0,0,1-.59.43,1.8,1.8,0,0,1-.77.16,1.9,1.9,0,0,1-1-.24,1.63,1.63,0,0,1-.66-.64,1.85,1.85,0,0,1-.24-.94,2,2,0,0,1,.22-.94,1.69,1.69,0,0,1,.62-.65,1.76,1.76,0,0,1,.89-.23,1.63,1.63,0,0,1,.88.23,1.66,1.66,0,0,1,.62.64,1.91,1.91,0,0,1,.22.93Zm-2.41-1.43a1.38,1.38,0,0,0-.49.47,1.59,1.59,0,0,0-.21.69h2.77a1.49,1.49,0,0,0-.2-.69A1.38,1.38,0,0,0,164,288,1.44,1.44,0,0,0,163.3,288.18Z" style="fill:#939393"/><path d="M166.83,289.32h1.78v.31h-1.78Z" style="fill:#939393"/><path d="M28.74,304.82a.89.89,0,0,1-.33.19,1.14,1.14,0,0,1-.41.07,1,1,0,0,1-.73-.26,1,1,0,0,1-.25-.72v-2.34h-.67v-.29H27v-.79h.34v.79h1.15v.29H27.36v2.31a.77.77,0,0,0,.17.53.65.65,0,0,0,.5.18.76.76,0,0,0,.56-.2Z" style="fill:#939393"/><path d="M33.21,301.47v3.58h-.33v-.77a1.38,1.38,0,0,1-.53.59,1.63,1.63,0,0,1-.83.21,1.53,1.53,0,0,1-1.11-.39,1.51,1.51,0,0,1-.4-1.13v-2.09h.34v2.06a1.28,1.28,0,0,0,.31.92,1.2,1.2,0,0,0,.88.32,1.28,1.28,0,0,0,1-.38,1.41,1.41,0,0,0,.36-1v-1.9Z" style="fill:#939393"/><path d="M38.08,303.34H35a1.4,1.4,0,0,0,.22.74,1.33,1.33,0,0,0,.54.51,1.65,1.65,0,0,0,.77.18,1.59,1.59,0,0,0,.66-.13,1.31,1.31,0,0,0,.5-.37l.2.22a1.72,1.72,0,0,1-.59.44,2,2,0,0,1-.78.15,1.9,1.9,0,0,1-1-.24,1.69,1.69,0,0,1-.66-.64,1.85,1.85,0,0,1-.24-.94,2,2,0,0,1,.23-.94,1.62,1.62,0,0,1,.62-.65,1.75,1.75,0,0,1,.88-.23,1.79,1.79,0,0,1,.89.23,1.63,1.63,0,0,1,.61.64,1.91,1.91,0,0,1,.23.93Zm-2.4-1.43a1.23,1.23,0,0,0-.49.47,1.64,1.64,0,0,0-.21.69h2.77a1.55,1.55,0,0,0-.21-.68,1.33,1.33,0,0,0-.49-.48,1.47,1.47,0,0,0-1.37,0Z" style="fill:#939393"/><path d="M40.36,301.65a1.64,1.64,0,0,1,.86-.21v.33h-.09a1.21,1.21,0,0,0-.94.37,1.53,1.53,0,0,0-.34,1v1.87h-.34v-3.58h.33v.78A1.22,1.22,0,0,1,40.36,301.65Z" style="fill:#939393"/><path d="M47,301.78a1.3,1.3,0,0,1,.36,1v2.27H47v-.64a1.27,1.27,0,0,1-.51.49,1.66,1.66,0,0,1-.8.18,1.51,1.51,0,0,1-1-.28,1,1,0,0,1,0-1.47,1.55,1.55,0,0,1,1-.28H47v-.29a1,1,0,0,0-.27-.76,1.13,1.13,0,0,0-.8-.26,1.88,1.88,0,0,0-1.25.45l-.17-.24a2,2,0,0,1,.65-.38,2.36,2.36,0,0,1,.8-.13A1.44,1.44,0,0,1,47,301.78Zm-.46,2.81A1.24,1.24,0,0,0,47,304v-.67H45.74a1.21,1.21,0,0,0-.77.19.65.65,0,0,0-.24.53.66.66,0,0,0,.26.55,1.16,1.16,0,0,0,.74.21A1.36,1.36,0,0,0,46.5,304.59Z" style="fill:#939393"/><path d="M52.31,300v5.1H52v-.85a1.51,1.51,0,0,1-.6.65,1.72,1.72,0,0,1-.88.23,1.8,1.8,0,0,1-.92-.24,1.71,1.71,0,0,1-.64-.64,2.06,2.06,0,0,1,0-1.89,1.71,1.71,0,0,1,.64-.64,1.9,1.9,0,0,1,.92-.23,1.71,1.71,0,0,1,.87.22,1.68,1.68,0,0,1,.6.64V300Zm-1.06,4.63a1.35,1.35,0,0,0,.52-.54,1.55,1.55,0,0,0,.19-.78,1.5,1.5,0,0,0-.19-.78,1.35,1.35,0,0,0-.52-.54,1.41,1.41,0,0,0-.74-.19,1.38,1.38,0,0,0-.74.19,1.35,1.35,0,0,0-.52.54,1.5,1.5,0,0,0-.19.78,1.55,1.55,0,0,0,.19.78,1.35,1.35,0,0,0,.52.54,1.48,1.48,0,0,0,.74.19A1.51,1.51,0,0,0,51.25,304.58Z" style="fill:#939393"/><path d="M54.09,300.51a.22.22,0,0,1-.08-.19.28.28,0,0,1,.48-.2.22.22,0,0,1,.08.19.28.28,0,0,1-.48.2Zm0,1h.34v3.58h-.34Z" style="fill:#939393"/><path d="M59,301.67a1.74,1.74,0,0,1,.64.65,1.9,1.9,0,0,1,.23.94,2,2,0,0,1-.23.94,1.74,1.74,0,0,1-.64.65,1.86,1.86,0,0,1-.91.23,1.71,1.71,0,0,1-.87-.23,1.49,1.49,0,0,1-.6-.62v2.15h-.35v-4.91h.33v.84a1.63,1.63,0,0,1,.61-.64,1.72,1.72,0,0,1,.88-.23A1.86,1.86,0,0,1,59,301.67Zm-.19,2.91a1.35,1.35,0,0,0,.52-.54,1.55,1.55,0,0,0,.19-.78,1.5,1.5,0,0,0-.19-.78,1.35,1.35,0,0,0-.52-.54,1.56,1.56,0,0,0-1.49,0,1.42,1.42,0,0,0-.52.54,1.5,1.5,0,0,0-.19.78,1.55,1.55,0,0,0,.19.78,1.42,1.42,0,0,0,.52.54,1.56,1.56,0,0,0,1.49,0Z" style="fill:#939393"/><path d="M61.26,300.51a.26.26,0,0,1-.08-.19.28.28,0,0,1,.08-.2.27.27,0,0,1,.2-.08.28.28,0,0,1,.21.08.26.26,0,0,1,.08.19.27.27,0,0,1-.29.28A.27.27,0,0,1,61.26,300.51Zm0,1h.35v3.58h-.35Z" style="fill:#939393"/><path d="M63.53,305a1.89,1.89,0,0,1-.62-.33l.16-.28a1.72,1.72,0,0,0,.57.31,2.28,2.28,0,0,0,.73.12,1.44,1.44,0,0,0,.81-.17.59.59,0,0,0,.26-.5.49.49,0,0,0-.14-.36,1,1,0,0,0-.35-.19l-.58-.13a5.13,5.13,0,0,1-.69-.16,1.13,1.13,0,0,1-.45-.29.8.8,0,0,1-.19-.55.85.85,0,0,1,.36-.7,1.6,1.6,0,0,1,1-.28,2.67,2.67,0,0,1,.69.09,1.66,1.66,0,0,1,.55.26l-.15.27a2,2,0,0,0-.51-.24,2.25,2.25,0,0,0-.58-.08,1.23,1.23,0,0,0-.76.19.56.56,0,0,0-.26.48.49.49,0,0,0,.15.38.92.92,0,0,0,.35.2l.59.14a4.78,4.78,0,0,1,.69.16,1.07,1.07,0,0,1,.44.28.72.72,0,0,1,.18.53.84.84,0,0,1-.38.71,1.77,1.77,0,0,1-1,.27A2.83,2.83,0,0,1,63.53,305Z" style="fill:#939393"/><path d="M67.59,304.84a1.69,1.69,0,0,1-.65-.65,1.91,1.91,0,0,1-.23-.93,2,2,0,0,1,.23-.95,1.74,1.74,0,0,1,.65-.64,2,2,0,0,1,1-.23,1.73,1.73,0,0,1,.79.17,1.38,1.38,0,0,1,.58.49l-.26.18a1.23,1.23,0,0,0-.48-.4,1.6,1.6,0,0,0-1.39.06,1.29,1.29,0,0,0-.53.53,1.74,1.74,0,0,0,0,1.58,1.35,1.35,0,0,0,.53.53,1.56,1.56,0,0,0,.76.19,1.46,1.46,0,0,0,.63-.14,1.23,1.23,0,0,0,.48-.4l.26.19a1.45,1.45,0,0,1-.58.49,2,2,0,0,1-1.74-.07Z" style="fill:#939393"/><path d="M71.26,300.51a.26.26,0,0,1-.08-.19.27.27,0,0,1,.29-.28.27.27,0,0,1,.2.08.26.26,0,0,1,.08.19.28.28,0,0,1-.08.2.27.27,0,0,1-.2.08A.28.28,0,0,1,71.26,300.51Zm0,1h.35v3.58h-.35Z" style="fill:#939393"/><path d="M76.28,301.83a1.5,1.5,0,0,1,.4,1.13v2.09h-.35V303a1.25,1.25,0,0,0-.31-.92,1.13,1.13,0,0,0-.86-.31,1.33,1.33,0,0,0-1,.37,1.41,1.41,0,0,0-.37,1v1.91h-.34v-3.58h.33v.77a1.33,1.33,0,0,1,.56-.59,1.7,1.7,0,0,1,.87-.21A1.45,1.45,0,0,1,76.28,301.83Z" style="fill:#939393"/><path d="M81.71,301.47v3.19a1.76,1.76,0,0,1-.43,1.32,1.79,1.79,0,0,1-1.32.43,2.94,2.94,0,0,1-.94-.15,1.76,1.76,0,0,1-.71-.42l.18-.26a2,2,0,0,0,.65.38,2.46,2.46,0,0,0,.81.14,1.45,1.45,0,0,0,1.07-.34,1.43,1.43,0,0,0,.35-1.05v-.61a1.65,1.65,0,0,1-.62.61,1.86,1.86,0,0,1-.89.21,2,2,0,0,1-.91-.22,1.64,1.64,0,0,1-.65-.63,1.79,1.79,0,0,1,0-1.79,1.55,1.55,0,0,1,.65-.62,1.86,1.86,0,0,1,.91-.22,1.83,1.83,0,0,1,.91.22,1.46,1.46,0,0,1,.61.62v-.81Zm-1.06,3a1.24,1.24,0,0,0,.53-.51,1.56,1.56,0,0,0,0-1.49,1.28,1.28,0,0,0-.53-.5,1.58,1.58,0,0,0-.76-.18,1.61,1.61,0,0,0-.76.18,1.32,1.32,0,0,0-.52.5,1.56,1.56,0,0,0,0,1.49,1.28,1.28,0,0,0,.52.51,1.61,1.61,0,0,0,.76.18A1.58,1.58,0,0,0,80.65,304.43Z" style="fill:#939393"/><path d="M88.71,303.34H85.6a1.49,1.49,0,0,0,.21.74,1.42,1.42,0,0,0,.55.51,1.59,1.59,0,0,0,.77.18,1.57,1.57,0,0,0,.65-.13,1.24,1.24,0,0,0,.5-.37l.21.22a1.67,1.67,0,0,1-.6.44,1.92,1.92,0,0,1-.77.15,1.9,1.9,0,0,1-1-.24,1.69,1.69,0,0,1-.66-.64,1.85,1.85,0,0,1-.24-.94,2,2,0,0,1,.22-.94,1.69,1.69,0,0,1,.62-.65,1.79,1.79,0,0,1,.89-.23,1.72,1.72,0,0,1,.88.23,1.66,1.66,0,0,1,.62.64,1.91,1.91,0,0,1,.22.93Zm-2.41-1.43a1.27,1.27,0,0,0-.48.47,1.52,1.52,0,0,0-.22.69h2.77a1.42,1.42,0,0,0-.2-.68,1.41,1.41,0,0,0-.49-.48,1.49,1.49,0,0,0-1.38,0Z" style="fill:#939393"/><path d="M90.13,300h.35v5.1h-.35Z" style="fill:#939393"/><path d="M92.26,300.51a.22.22,0,0,1-.08-.19.28.28,0,0,1,.48-.2.22.22,0,0,1,.08.19.28.28,0,0,1-.48.2Zm0,1h.34v3.58h-.34Z" style="fill:#939393"/><path d="M96.23,304.82a.78.78,0,0,1-.32.19,1.2,1.2,0,0,1-.42.07.9.9,0,0,1-1-1v-2.34h-.66v-.29h.66v-.79h.35v.79H96v.29H94.86v2.31a.72.72,0,0,0,.17.53.65.65,0,0,0,.5.18.77.77,0,0,0,.56-.2Z" style="fill:#939393"/><path d="M97.78,304.58a.3.3,0,0,1,.08.2.39.39,0,0,1,0,.15c0,.05,0,.1,0,.17l-.27.93h-.25l.23-1a.32.32,0,0,1-.17-.1.26.26,0,0,1-.06-.18.28.28,0,0,1,.08-.2.29.29,0,0,1,.42,0Z" style="fill:#939393"/><path d="M101.55,305a1.74,1.74,0,0,1-.61-.33l.16-.28a1.54,1.54,0,0,0,.57.31,2.19,2.19,0,0,0,.73.12,1.42,1.42,0,0,0,.8-.17.56.56,0,0,0,.26-.5.45.45,0,0,0-.14-.36.91.91,0,0,0-.35-.19l-.57-.13a5,5,0,0,1-.7-.16,1.2,1.2,0,0,1-.45-.29.79.79,0,0,1-.18-.55.86.86,0,0,1,.35-.7,1.61,1.61,0,0,1,1-.28,2.59,2.59,0,0,1,.68.09,1.82,1.82,0,0,1,.56.26l-.16.27a2,2,0,0,0-.51-.24,2.25,2.25,0,0,0-.58-.08,1.23,1.23,0,0,0-.76.19.56.56,0,0,0-.26.48.49.49,0,0,0,.15.38,1,1,0,0,0,.36.2c.14,0,.33.09.59.14a4.6,4.6,0,0,1,.68.16,1.07,1.07,0,0,1,.44.28.72.72,0,0,1,.18.53.83.83,0,0,1-.37.71,1.79,1.79,0,0,1-1.06.27A2.83,2.83,0,0,1,101.55,305Z" style="fill:#939393"/><path d="M108.18,303.34h-3.11a1.4,1.4,0,0,0,.22.74,1.33,1.33,0,0,0,.54.51,1.62,1.62,0,0,0,.77.18,1.59,1.59,0,0,0,.66-.13,1.31,1.31,0,0,0,.5-.37l.2.22a1.72,1.72,0,0,1-.59.44,2,2,0,0,1-.78.15,1.9,1.9,0,0,1-1-.24,1.69,1.69,0,0,1-.66-.64,1.85,1.85,0,0,1-.24-.94,2,2,0,0,1,.23-.94,1.62,1.62,0,0,1,.62-.65,1.75,1.75,0,0,1,.88-.23,1.79,1.79,0,0,1,.89.23,1.63,1.63,0,0,1,.61.64,1.91,1.91,0,0,1,.23.93Zm-2.4-1.43a1.23,1.23,0,0,0-.49.47,1.64,1.64,0,0,0-.21.69h2.77a1.55,1.55,0,0,0-.21-.68,1.33,1.33,0,0,0-.49-.48,1.44,1.44,0,0,0-.69-.17A1.4,1.4,0,0,0,105.78,301.91Z" style="fill:#939393"/><path d="M112.82,300v5.1h-.34v-.85a1.51,1.51,0,0,1-.6.65,1.72,1.72,0,0,1-.88.23,1.8,1.8,0,0,1-.92-.24,1.71,1.71,0,0,1-.64-.64,2.06,2.06,0,0,1,0-1.89,1.71,1.71,0,0,1,.64-.64,1.9,1.9,0,0,1,.92-.23,1.71,1.71,0,0,1,.87.22,1.76,1.76,0,0,1,.6.64V300Zm-1.06,4.63a1.42,1.42,0,0,0,.52-.54,1.55,1.55,0,0,0,.19-.78,1.5,1.5,0,0,0-.19-.78,1.39,1.39,0,0,0-1.26-.73,1.44,1.44,0,0,0-.75.19,1.42,1.42,0,0,0-.52.54,1.61,1.61,0,0,0-.19.78,1.67,1.67,0,0,0,.19.78,1.42,1.42,0,0,0,.52.54,1.55,1.55,0,0,0,.75.19A1.51,1.51,0,0,0,111.76,304.58Z" style="fill:#939393"/><path d="M120,300v5.1h-.34v-.85a1.51,1.51,0,0,1-.6.65,1.72,1.72,0,0,1-.88.23,1.77,1.77,0,0,1-.91-.24,1.64,1.64,0,0,1-.64-.64,2.06,2.06,0,0,1,0-1.89,1.64,1.64,0,0,1,.64-.64,1.86,1.86,0,0,1,.91-.23,1.66,1.66,0,0,1,.87.22,1.7,1.7,0,0,1,.61.64V300Zm-1,4.63a1.42,1.42,0,0,0,.52-.54,1.67,1.67,0,0,0,.19-.78,1.61,1.61,0,0,0-.19-.78,1.42,1.42,0,0,0-.52-.54,1.56,1.56,0,0,0-1.49,0,1.42,1.42,0,0,0-.52.54,1.5,1.5,0,0,0-.19.78,1.55,1.55,0,0,0,.19.78,1.42,1.42,0,0,0,.52.54,1.56,1.56,0,0,0,1.49,0Z" style="fill:#939393"/><path d="M121.74,300.51a.26.26,0,0,1-.08-.19.28.28,0,0,1,.08-.2.27.27,0,0,1,.2-.08.28.28,0,0,1,.21.08.26.26,0,0,1,.08.19.27.27,0,0,1-.29.28A.27.27,0,0,1,121.74,300.51Zm0,1h.35v3.58h-.35Z" style="fill:#939393"/><path d="M126.18,301.78a1.3,1.3,0,0,1,.36,1v2.27h-.34v-.64a1.18,1.18,0,0,1-.5.49,1.66,1.66,0,0,1-.8.18,1.51,1.51,0,0,1-1-.28,1,1,0,0,1,0-1.47,1.55,1.55,0,0,1,1-.28h1.24v-.29a1,1,0,0,0-.27-.76,1.15,1.15,0,0,0-.8-.26,1.88,1.88,0,0,0-1.25.45l-.17-.24a1.89,1.89,0,0,1,.65-.38,2.34,2.34,0,0,1,.79-.13A1.45,1.45,0,0,1,126.18,301.78Zm-.46,2.81a1.3,1.3,0,0,0,.47-.6v-.67H125a1.21,1.21,0,0,0-.77.19.65.65,0,0,0-.24.53.64.64,0,0,0,.26.55,1.16,1.16,0,0,0,.74.21A1.36,1.36,0,0,0,125.72,304.59Z" style="fill:#939393"/><path d="M133.87,301.83a1.57,1.57,0,0,1,.38,1.13v2.09h-.35V303a1.29,1.29,0,0,0-.29-.92,1.1,1.1,0,0,0-.84-.31,1.27,1.27,0,0,0-1,.37,1.44,1.44,0,0,0-.36,1v1.91h-.34V303a1.29,1.29,0,0,0-.3-.92,1.09,1.09,0,0,0-.83-.31,1.27,1.27,0,0,0-1,.37,1.44,1.44,0,0,0-.36,1v1.91h-.34v-3.58h.33v.76a1.32,1.32,0,0,1,.54-.58,1.65,1.65,0,0,1,.85-.21,1.49,1.49,0,0,1,.83.22,1.18,1.18,0,0,1,.49.64,1.48,1.48,0,0,1,.56-.63,1.77,1.77,0,0,1,.9-.23A1.43,1.43,0,0,1,133.87,301.83Z" style="fill:#939393"/><path d="M141,301.83a1.54,1.54,0,0,1,.39,1.13v2.09H141V303a1.29,1.29,0,0,0-.31-.92,1.16,1.16,0,0,0-.86-.31,1.35,1.35,0,0,0-1,.37,1.45,1.45,0,0,0-.37,1v1.91h-.34v-3.58h.33v.77a1.39,1.39,0,0,1,.56-.59,1.75,1.75,0,0,1,.87-.21A1.46,1.46,0,0,1,141,301.83Z" style="fill:#939393"/><path d="M143.65,304.84a1.69,1.69,0,0,1-.65-.65,1.91,1.91,0,0,1-.23-.93,2,2,0,0,1,.23-.94,1.76,1.76,0,0,1,.65-.65,2,2,0,0,1,1.85,0,1.76,1.76,0,0,1,.65.65,2,2,0,0,1,.23.94,1.91,1.91,0,0,1-.23.93,1.69,1.69,0,0,1-.65.65,1.9,1.9,0,0,1-1.85,0Zm1.67-.26a1.42,1.42,0,0,0,.52-.54,1.55,1.55,0,0,0,.19-.78,1.5,1.5,0,0,0-.19-.78,1.42,1.42,0,0,0-.52-.54,1.56,1.56,0,0,0-1.49,0,1.42,1.42,0,0,0-.52.54,1.5,1.5,0,0,0-.19.78,1.55,1.55,0,0,0,.19.78,1.42,1.42,0,0,0,.52.54,1.56,1.56,0,0,0,1.49,0Z" style="fill:#939393"/><path d="M150.64,301.83A1.54,1.54,0,0,1,151,303v2.09h-.34V303a1.25,1.25,0,0,0-.31-.92,1.13,1.13,0,0,0-.86-.31,1.35,1.35,0,0,0-1,.37,1.44,1.44,0,0,0-.36,1v1.91h-.35v-3.58h.33v.77a1.39,1.39,0,0,1,.56-.59,1.76,1.76,0,0,1,.88-.21A1.45,1.45,0,0,1,150.64,301.83Z" style="fill:#939393"/><path d="M156,301.47v3.58h-.33v-.77a1.38,1.38,0,0,1-.53.59,1.63,1.63,0,0,1-.83.21,1.53,1.53,0,0,1-1.11-.39,1.51,1.51,0,0,1-.4-1.13v-2.09h.34v2.06a1.28,1.28,0,0,0,.31.92,1.2,1.2,0,0,0,.88.32,1.28,1.28,0,0,0,1-.38,1.41,1.41,0,0,0,.36-1v-1.9Z" style="fill:#939393"/><path d="M163.34,301.83a1.54,1.54,0,0,1,.39,1.13v2.09h-.35V303a1.29,1.29,0,0,0-.3-.92,1.06,1.06,0,0,0-.83-.31,1.25,1.25,0,0,0-1,.37,1.44,1.44,0,0,0-.36,1v1.91h-.35V303a1.33,1.33,0,0,0-.29-.92,1.09,1.09,0,0,0-.83-.31,1.27,1.27,0,0,0-1,.37,1.44,1.44,0,0,0-.36,1v1.91h-.34v-3.58h.33v.76a1.32,1.32,0,0,1,.54-.58,1.61,1.61,0,0,1,.84-.21,1.5,1.5,0,0,1,.84.22,1.18,1.18,0,0,1,.49.64,1.42,1.42,0,0,1,.56-.63,1.77,1.77,0,0,1,.9-.23A1.4,1.4,0,0,1,163.34,301.83Z" style="fill:#939393"/><path d="M165.2,303.05H167v.31H165.2Z" style="fill:#939393"/><path d="M52,315.56a1.54,1.54,0,0,1,.39,1.13v2.09H52v-2.07a1.29,1.29,0,0,0-.3-.92,1.08,1.08,0,0,0-.83-.31,1.21,1.21,0,0,0-1,.38,1.4,1.4,0,0,0-.36,1v1.91h-.35v-2.07a1.33,1.33,0,0,0-.29-.92,1.1,1.1,0,0,0-.84-.31,1.24,1.24,0,0,0-1,.38,1.4,1.4,0,0,0-.36,1v1.91h-.34V315.2h.33V316a1.32,1.32,0,0,1,.53-.59,1.65,1.65,0,0,1,.85-.21,1.5,1.5,0,0,1,.84.22,1.22,1.22,0,0,1,.49.64,1.42,1.42,0,0,1,.56-.63,1.74,1.74,0,0,1,.9-.23A1.4,1.4,0,0,1,52,315.56Z" style="fill:#939393"/><path d="M57,315.2l-1.85,4.07a1.65,1.65,0,0,1-.48.67,1.11,1.11,0,0,1-.65.2,1.45,1.45,0,0,1-.47-.08,1.08,1.08,0,0,1-.37-.24l.17-.26a1,1,0,0,0,.67.28.68.68,0,0,0,.45-.15,1.24,1.24,0,0,0,.35-.49l.19-.43-1.62-3.57h.36l1.45,3.2,1.45-3.2Z" style="fill:#939393"/><path d="M63,315.56a1.54,1.54,0,0,1,.39,1.13v2.09h-.34v-2.07a1.29,1.29,0,0,0-.31-.92,1.16,1.16,0,0,0-.86-.31,1.32,1.32,0,0,0-1,.38,1.41,1.41,0,0,0-.37,1v1.91H60.2V315.2h.33V316a1.39,1.39,0,0,1,.56-.59,1.75,1.75,0,0,1,.87-.21A1.48,1.48,0,0,1,63,315.56Z" style="fill:#939393"/><path d="M65.18,314.25a.27.27,0,0,1,0-.4.28.28,0,0,1,.2-.08.3.3,0,0,1,.2.08.27.27,0,0,1,.08.19.28.28,0,0,1-.08.2.26.26,0,0,1-.2.08A.27.27,0,0,1,65.18,314.25Zm0,.95h.35v3.58H65.2Z" style="fill:#939393"/><path d="M70.09,315.4a1.71,1.71,0,0,1,.64.64A2,2,0,0,1,71,317a2,2,0,0,1-.23.94,1.71,1.71,0,0,1-.64.64,1.8,1.8,0,0,1-.92.24,1.71,1.71,0,0,1-.87-.23,1.57,1.57,0,0,1-.61-.64v.84h-.33v-5.09h.34V316a1.65,1.65,0,0,1,.61-.62,1.67,1.67,0,0,1,.86-.22A1.9,1.9,0,0,1,70.09,315.4Zm-.19,2.91a1.35,1.35,0,0,0,.52-.54,1.7,1.7,0,0,0,0-1.56,1.35,1.35,0,0,0-.52-.54,1.56,1.56,0,0,0-1.49,0,1.42,1.42,0,0,0-.52.54,1.7,1.7,0,0,0,0,1.56,1.39,1.39,0,0,0,1.26.73A1.44,1.44,0,0,0,69.9,318.31Z" style="fill:#939393"/><path d="M75.22,315.56a1.54,1.54,0,0,1,.39,1.13v2.09h-.34v-2.07a1.29,1.29,0,0,0-.31-.92,1.16,1.16,0,0,0-.86-.31,1.32,1.32,0,0,0-1,.38,1.41,1.41,0,0,0-.37,1v1.91h-.34v-5.09h.34v2.25a1.4,1.4,0,0,1,.56-.57,1.79,1.79,0,0,1,.86-.2A1.48,1.48,0,0,1,75.22,315.56Z" style="fill:#939393"/><path d="M82.56,317.07H79.45a1.57,1.57,0,0,0,.22.75,1.37,1.37,0,0,0,.54.5,1.65,1.65,0,0,0,.77.18,1.59,1.59,0,0,0,.66-.13,1.24,1.24,0,0,0,.5-.37l.2.23a1.53,1.53,0,0,1-.59.43,2,2,0,0,1-.77.15,1.9,1.9,0,0,1-1-.24,1.65,1.65,0,0,1-.67-.64,1.85,1.85,0,0,1-.24-.94,2,2,0,0,1,.23-.94,1.69,1.69,0,0,1,.62-.65,1.82,1.82,0,0,1,1.77,0,1.66,1.66,0,0,1,.62.64,2,2,0,0,1,.22.94Zm-2.4-1.43a1.38,1.38,0,0,0-.49.47,1.64,1.64,0,0,0-.21.69h2.77a1.33,1.33,0,0,0-.21-.68,1.41,1.41,0,0,0-1.86-.48Z" style="fill:#939393"/><path d="M87.15,315.2v3.58h-.33V318a1.38,1.38,0,0,1-.53.59,1.6,1.6,0,0,1-.83.21,1.53,1.53,0,0,1-1.11-.39,1.5,1.5,0,0,1-.4-1.13V315.2h.35v2.06a1.23,1.23,0,0,0,.31.92,1.17,1.17,0,0,0,.88.32,1.27,1.27,0,0,0,1-.38,1.4,1.4,0,0,0,.36-1V315.2Z" style="fill:#939393"/><path d="M88.94,314.25a.28.28,0,0,1,.2-.48.28.28,0,0,1,.2.08.25.25,0,0,1,.09.19.25.25,0,0,1-.09.2.24.24,0,0,1-.2.08A.29.29,0,0,1,88.94,314.25Zm0,.95h.35v3.58H89Z" style="fill:#939393"/><path d="M91.21,318.68a1.8,1.8,0,0,1-.62-.33l.16-.28a1.72,1.72,0,0,0,.57.31,2,2,0,0,0,.73.13,1.43,1.43,0,0,0,.81-.18.59.59,0,0,0,.26-.5.45.45,0,0,0-.14-.35,1.1,1.1,0,0,0-.35-.2l-.58-.13a4.78,4.78,0,0,1-.69-.16,1.06,1.06,0,0,1-.45-.29.75.75,0,0,1-.19-.55.85.85,0,0,1,.36-.7,1.58,1.58,0,0,1,1-.28,2.35,2.35,0,0,1,.69.1,1.56,1.56,0,0,1,.55.25l-.16.27a1.93,1.93,0,0,0-.5-.24,2.32,2.32,0,0,0-.58-.08,1.27,1.27,0,0,0-.77.19.56.56,0,0,0-.25.48.52.52,0,0,0,.14.38,1,1,0,0,0,.36.2l.59.14a4.6,4.6,0,0,1,.68.16,1,1,0,0,1,.44.28.74.74,0,0,1,.18.53.83.83,0,0,1-.37.71,1.77,1.77,0,0,1-1,.27A2.53,2.53,0,0,1,91.21,318.68Z" style="fill:#939393"/><path d="M100.34,315.56a1.57,1.57,0,0,1,.38,1.13v2.09h-.34v-2.07a1.29,1.29,0,0,0-.3-.92,1.09,1.09,0,0,0-.83-.31,1.24,1.24,0,0,0-1,.38,1.4,1.4,0,0,0-.36,1v1.91h-.34v-2.07a1.29,1.29,0,0,0-.3-.92,1.08,1.08,0,0,0-.83-.31,1.24,1.24,0,0,0-1,.38,1.44,1.44,0,0,0-.35,1v1.91h-.35V315.2h.33V316a1.29,1.29,0,0,1,.54-.59,1.65,1.65,0,0,1,.85-.21,1.47,1.47,0,0,1,.83.22,1.22,1.22,0,0,1,.49.64,1.44,1.44,0,0,1,.57-.63,1.71,1.71,0,0,1,.89-.23A1.43,1.43,0,0,1,100.34,315.56Z" style="fill:#939393"/><path d="M103,318.57a1.67,1.67,0,0,1-.65-.64,2,2,0,0,1,0-1.88,1.69,1.69,0,0,1,.65-.65,1.87,1.87,0,0,1,.92-.23,1.91,1.91,0,0,1,.93.23,1.76,1.76,0,0,1,.65.65,2,2,0,0,1,0,1.88,1.74,1.74,0,0,1-.65.64,1.81,1.81,0,0,1-.93.24A1.78,1.78,0,0,1,103,318.57Zm1.67-.26a1.42,1.42,0,0,0,.52-.54,1.7,1.7,0,0,0,0-1.56,1.42,1.42,0,0,0-.52-.54,1.56,1.56,0,0,0-1.49,0,1.42,1.42,0,0,0-.52.54,1.7,1.7,0,0,0,0,1.56,1.39,1.39,0,0,0,1.26.73A1.44,1.44,0,0,0,104.66,318.31Z" style="fill:#939393"/><path d="M110.35,313.69v5.09H110v-.84a1.49,1.49,0,0,1-.6.64,1.72,1.72,0,0,1-.88.23,1.77,1.77,0,0,1-.91-.24,1.64,1.64,0,0,1-.64-.64,1.85,1.85,0,0,1-.23-.94A1.88,1.88,0,0,1,107,316a1.64,1.64,0,0,1,.64-.64,1.86,1.86,0,0,1,.91-.23,1.57,1.57,0,0,1,.87.23,1.61,1.61,0,0,1,.61.63v-2.34Zm-1,4.62a1.42,1.42,0,0,0,.52-.54,1.7,1.7,0,0,0,0-1.56,1.42,1.42,0,0,0-.52-.54,1.56,1.56,0,0,0-1.49,0,1.42,1.42,0,0,0-.52.54,1.7,1.7,0,0,0,0,1.56,1.39,1.39,0,0,0,1.26.73A1.44,1.44,0,0,0,109.3,318.31Z" style="fill:#939393"/><path d="M116.08,318.55a.78.78,0,0,1-.33.19,1.14,1.14,0,0,1-.41.07,1,1,0,0,1-.73-.26,1,1,0,0,1-.25-.72v-2.34h-.67v-.29h.67v-.79h.34v.79h1.15v.29H114.7v2.31a.77.77,0,0,0,.17.53.65.65,0,0,0,.5.18.76.76,0,0,0,.56-.2Z" style="fill:#939393"/><path d="M117.36,314.25a.28.28,0,0,1,.2-.48.28.28,0,0,1,.2.08.25.25,0,0,1,.09.19.25.25,0,0,1-.09.2.24.24,0,0,1-.2.08A.29.29,0,0,1,117.36,314.25Zm0,.95h.34v3.58h-.34Z" style="fill:#939393"/><path d="M122.38,315.56a1.54,1.54,0,0,1,.4,1.13v2.09h-.35v-2.07a1.25,1.25,0,0,0-.31-.92,1.13,1.13,0,0,0-.86-.31,1.28,1.28,0,0,0-1,.38,1.37,1.37,0,0,0-.37,1v1.91h-.35V315.2h.33V316a1.45,1.45,0,0,1,.56-.59,1.76,1.76,0,0,1,.88-.21A1.45,1.45,0,0,1,122.38,315.56Z" style="fill:#939393"/><path d="M125.05,318.57a1.6,1.6,0,0,1-.65-.64,1.85,1.85,0,0,1-.24-.94,1.89,1.89,0,0,1,.24-.95,1.6,1.6,0,0,1,.65-.64,1.92,1.92,0,0,1,.94-.23,1.86,1.86,0,0,1,.79.17,1.38,1.38,0,0,1,.58.49l-.26.18a1.24,1.24,0,0,0-.48-.4,1.45,1.45,0,0,0-.63-.13,1.48,1.48,0,0,0-.76.19,1.35,1.35,0,0,0-.53.53,1.74,1.74,0,0,0,0,1.58,1.35,1.35,0,0,0,.53.53,1.48,1.48,0,0,0,.76.19,1.61,1.61,0,0,0,.63-.13,1.19,1.19,0,0,0,.48-.41l.26.19a1.45,1.45,0,0,1-.58.49,1.86,1.86,0,0,1-.79.17A1.83,1.83,0,0,1,125.05,318.57Z" style="fill:#939393"/><path d="M128.72,314.25a.27.27,0,0,1,0-.4.28.28,0,0,1,.2-.08.3.3,0,0,1,.2.08.27.27,0,0,1,.08.19.28.28,0,0,1-.08.2.26.26,0,0,1-.2.08A.27.27,0,0,1,128.72,314.25Zm0,.95h.34v3.58h-.34Z" style="fill:#939393"/><path d="M134.11,313.69v5.09h-.34v-.84a1.49,1.49,0,0,1-.6.64,1.72,1.72,0,0,1-.88.23,1.74,1.74,0,0,1-.91-.24,1.58,1.58,0,0,1-.64-.64,1.85,1.85,0,0,1-.24-.94,1.89,1.89,0,0,1,.24-.95,1.58,1.58,0,0,1,.64-.64,1.84,1.84,0,0,1,.91-.23,1.66,1.66,0,0,1,1.48.86v-2.34Zm-1.05,4.62a1.42,1.42,0,0,0,.52-.54,1.7,1.7,0,0,0,0-1.56,1.42,1.42,0,0,0-.52-.54,1.56,1.56,0,0,0-1.49,0,1.42,1.42,0,0,0-.52.54,1.7,1.7,0,0,0,0,1.56,1.39,1.39,0,0,0,1.26.73A1.44,1.44,0,0,0,133.06,318.31Z" style="fill:#939393"/><path d="M139.08,315.2v3.58h-.33V318a1.38,1.38,0,0,1-.53.59,1.6,1.6,0,0,1-.83.21,1.53,1.53,0,0,1-1.11-.39,1.5,1.5,0,0,1-.4-1.13V315.2h.34v2.06a1.24,1.24,0,0,0,.32.92,1.16,1.16,0,0,0,.87.32,1.28,1.28,0,0,0,1-.38,1.4,1.4,0,0,0,.36-1V315.2Z" style="fill:#939393"/><path d="M143.74,315.56a1.54,1.54,0,0,1,.39,1.13v2.09h-.34v-2.07a1.29,1.29,0,0,0-.31-.92,1.16,1.16,0,0,0-.86-.31,1.32,1.32,0,0,0-1,.38,1.41,1.41,0,0,0-.37,1v1.91h-.34V315.2h.33V316a1.39,1.39,0,0,1,.56-.59,1.75,1.75,0,0,1,.87-.21A1.46,1.46,0,0,1,143.74,315.56Z" style="fill:#939393"/><path d="M147.7,318.55a.78.78,0,0,1-.33.19,1.14,1.14,0,0,1-.41.07.9.9,0,0,1-1-1v-2.34h-.66v-.29H146v-.79h.35v.79h1.15v.29h-1.15v2.31a.77.77,0,0,0,.17.53.65.65,0,0,0,.5.18.77.77,0,0,0,.56-.2Z" style="fill:#939393"/><rect x="37.67" y="334.21" width="118.28" height="27.11" rx="11.61" style="fill:url(#b)"/><path d="M78.79,349.72a2.65,2.65,0,0,1-1-1,2.8,2.8,0,0,1-.37-1.41,2.66,2.66,0,0,1,.38-1.41,2.56,2.56,0,0,1,1-1,3,3,0,0,1,1.48-.36,3.09,3.09,0,0,1,1.2.23,2.39,2.39,0,0,1,.93.66l-.65.61a1.89,1.89,0,0,0-1.44-.63,2,2,0,0,0-1,.24,1.69,1.69,0,0,0-.68.67,1.85,1.85,0,0,0-.25,1,1.87,1.87,0,0,0,.25,1,1.73,1.73,0,0,0,.68.66,2,2,0,0,0,1,.24,1.89,1.89,0,0,0,1.44-.63l.65.61a2.53,2.53,0,0,1-.93.67,3.18,3.18,0,0,1-1.21.22A3,3,0,0,1,78.79,349.72Z" style="fill:#fff"/><path d="M84.22,349.78a1.92,1.92,0,0,1-.78-.74,2.07,2.07,0,0,1-.28-1.08,2,2,0,0,1,1.06-1.82,2.43,2.43,0,0,1,1.12-.26,2.49,2.49,0,0,1,1.14.26,2,2,0,0,1,.78.75,2.11,2.11,0,0,1,.28,1.07,2.17,2.17,0,0,1-.28,1.08,1.92,1.92,0,0,1-.78.74,2.37,2.37,0,0,1-1.14.27A2.32,2.32,0,0,1,84.22,349.78Zm2-.9a1.38,1.38,0,0,0,0-1.84,1.27,1.27,0,0,0-1.75,0,1.41,1.41,0,0,0,0,1.84,1.27,1.27,0,0,0,1.75,0Z" style="fill:#fff"/><path d="M92.42,346.33a1.73,1.73,0,0,1,.47,1.33V350h-1v-2.21a1.14,1.14,0,0,0-.25-.81,1,1,0,0,0-.73-.27,1.1,1.1,0,0,0-.84.32,1.26,1.26,0,0,0-.3.91V350h-1v-4.08h.91v.53a1.54,1.54,0,0,1,.6-.43,2.31,2.31,0,0,1,.82-.14A1.72,1.72,0,0,1,92.42,346.33Z" style="fill:#fff"/><path d="M97,349.78a1,1,0,0,1-.41.2,1.7,1.7,0,0,1-.51.07,1.5,1.5,0,0,1-1-.35,1.32,1.32,0,0,1-.37-1v-2H94V346h.68V345h1V346h1.1v.77h-1.1v1.93a.65.65,0,0,0,.15.46.57.57,0,0,0,.42.16.85.85,0,0,0,.54-.17Z" style="fill:#fff"/><path d="M98.19,345.09a.58.58,0,0,1,0-.82.63.63,0,0,1,.44-.16.61.61,0,0,1,.44.16.48.48,0,0,1,.18.39.57.57,0,0,1-.17.42.6.6,0,0,1-.45.17A.63.63,0,0,1,98.19,345.09Zm0,.83h1V350h-1Z" style="fill:#fff"/><path d="M104.33,346.33a1.73,1.73,0,0,1,.47,1.33V350h-1v-2.21a1.14,1.14,0,0,0-.25-.81,1,1,0,0,0-.73-.27,1.06,1.06,0,0,0-.83.32,1.23,1.23,0,0,0-.31.91V350h-1v-4.08h.91v.53a1.54,1.54,0,0,1,.6-.43,2.31,2.31,0,0,1,.82-.14A1.7,1.7,0,0,1,104.33,346.33Z" style="fill:#fff"/><path d="M110.39,345.92V350h-.92v-.52a1.51,1.51,0,0,1-.57.42,1.86,1.86,0,0,1-.75.15,1.61,1.61,0,0,1-1.77-1.8v-2.33h1v2.2a1.2,1.2,0,0,0,.25.82.93.93,0,0,0,.71.27,1,1,0,0,0,.82-.32,1.23,1.23,0,0,0,.31-.91v-2.06Z" style="fill:#fff"/><path d="M115.88,348.27h-3.22a1.12,1.12,0,0,0,.44.71,1.65,1.65,0,0,0,2-.18l.51.59a1.68,1.68,0,0,1-.7.49,2.77,2.77,0,0,1-2.15-.1A1.88,1.88,0,0,1,112,349a2.07,2.07,0,0,1-.28-1.08,2.13,2.13,0,0,1,.27-1.07,1.89,1.89,0,0,1,.76-.75,2.31,2.31,0,0,1,1.09-.26,2.2,2.2,0,0,1,1.07.26,1.82,1.82,0,0,1,.74.74,2.21,2.21,0,0,1,.27,1.1C115.9,348.05,115.89,348.14,115.88,348.27ZM113,346.91a1.17,1.17,0,0,0-.39.72H115a1.1,1.1,0,0,0-.37-.71,1.26,1.26,0,0,0-1.57,0Z" style="fill:#fff"/><rect x="65.75" y="372.42" width="62.12" height="2.41" rx="1.03" style="fill:#e0e6e9"/><path d="M69,272.41a2.4,2.4,0,0,1-.92-.46l.34-.77a2.87,2.87,0,0,0,.82.42,2.94,2.94,0,0,0,1,.17,1.67,1.67,0,0,0,.9-.2.55.55,0,0,0,.29-.5.49.49,0,0,0-.16-.38,1.2,1.2,0,0,0-.42-.23c-.17-.06-.4-.12-.69-.19a8,8,0,0,1-1-.29,1.73,1.73,0,0,1-.65-.45,1.2,1.2,0,0,1-.28-.84,1.35,1.35,0,0,1,.25-.8,1.54,1.54,0,0,1,.73-.58,3,3,0,0,1,1.19-.21,3.91,3.91,0,0,1,1,.12,2.73,2.73,0,0,1,.83.35l-.32.77a3,3,0,0,0-.74-.31,2.76,2.76,0,0,0-.74-.11,1.57,1.57,0,0,0-.88.2.6.6,0,0,0-.29.53.47.47,0,0,0,.16.37,1.2,1.2,0,0,0,.42.23l.69.19a7.19,7.19,0,0,1,1,.29,1.73,1.73,0,0,1,.66.45,1.19,1.19,0,0,1,.27.82,1.4,1.4,0,0,1-.24.8,1.7,1.7,0,0,1-.74.58,3.07,3.07,0,0,1-1.2.21A4.06,4.06,0,0,1,69,272.41Z" style="fill:#6a6f82"/><path d="M80.08,268.84a1.81,1.81,0,0,1,.46,1.34v2.33h-1V270.3a1.21,1.21,0,0,0-.23-.8.87.87,0,0,0-.69-.27,1,1,0,0,0-.78.31,1.31,1.31,0,0,0-.29.91v2.06h-1V270.3a1.16,1.16,0,0,0-.24-.8.87.87,0,0,0-.68-.27,1,1,0,0,0-.79.31,1.31,1.31,0,0,0-.28.91v2.06h-1v-4.07h.92V269a1.45,1.45,0,0,1,.58-.42,1.89,1.89,0,0,1,.77-.15,2,2,0,0,1,.82.17,1.45,1.45,0,0,1,.56.51,1.75,1.75,0,0,1,.66-.5,2.1,2.1,0,0,1,.88-.18A1.66,1.66,0,0,1,80.08,268.84Z" style="fill:#6a6f82"/><path d="M85.11,268.82a1.68,1.68,0,0,1,.48,1.31v2.38h-.91V272a1.14,1.14,0,0,1-.5.41,2.07,2.07,0,0,1-.79.14,2,2,0,0,1-.81-.16,1.2,1.2,0,0,1-.53-.43,1.15,1.15,0,0,1,.22-1.51,2,2,0,0,1,1.3-.34h1.06v-.06a.83.83,0,0,0-.26-.65,1.09,1.09,0,0,0-.77-.23,2.29,2.29,0,0,0-.68.1,1.58,1.58,0,0,0-.56.3L82,268.9a2.36,2.36,0,0,1,.78-.38,3.71,3.71,0,0,1,1-.13A2,2,0,0,1,85.11,268.82Zm-.88,2.89a.92.92,0,0,0,.4-.47v-.47h-1c-.56,0-.83.18-.83.54a.47.47,0,0,0,.2.41,1,1,0,0,0,.58.15A1.22,1.22,0,0,0,84.23,271.71Z" style="fill:#6a6f82"/><path d="M89.58,268.39v.91l-.22,0a1.2,1.2,0,0,0-.88.32,1.3,1.3,0,0,0-.31.94v2h-1v-4.07h.91V269A1.63,1.63,0,0,1,89.58,268.39Z" style="fill:#6a6f82"/><path d="M93.41,272.29a1.22,1.22,0,0,1-.41.21,2.25,2.25,0,0,1-.52.07,1.45,1.45,0,0,1-1-.35,1.35,1.35,0,0,1-.37-1v-2h-.68v-.76h.68v-.93h1v.93h1.1v.76H92v1.94a.61.61,0,0,0,.15.45.52.52,0,0,0,.42.16.81.81,0,0,0,.54-.17Z" style="fill:#6a6f82"/><path d="M97.65,272.41a2.48,2.48,0,0,1-.92-.46l.35-.77a2.81,2.81,0,0,0,.81.42,2.94,2.94,0,0,0,1,.17,1.64,1.64,0,0,0,.9-.2.56.56,0,0,0,.3-.5.5.5,0,0,0-.17-.38,1.2,1.2,0,0,0-.42-.23c-.17-.06-.4-.12-.69-.19a8.56,8.56,0,0,1-1-.29,1.73,1.73,0,0,1-.65-.45,1.25,1.25,0,0,1-.27-.84,1.42,1.42,0,0,1,.24-.8,1.54,1.54,0,0,1,.73-.58,3.07,3.07,0,0,1,1.2-.21,4,4,0,0,1,1,.12,2.78,2.78,0,0,1,.82.35l-.32.77a3,3,0,0,0-1.48-.42,1.57,1.57,0,0,0-.88.2.62.62,0,0,0-.29.53A.45.45,0,0,0,98,269a1.25,1.25,0,0,0,.41.23c.17.05.4.12.7.19a6.61,6.61,0,0,1,1,.29,1.59,1.59,0,0,1,.66.45,1.19,1.19,0,0,1,.27.82,1.4,1.4,0,0,1-.24.8,1.73,1.73,0,0,1-.73.58,3.09,3.09,0,0,1-1.21.21A4.06,4.06,0,0,1,97.65,272.41Z" style="fill:#6a6f82"/><path d="M106.17,270.78h-3.23a1.09,1.09,0,0,0,.44.71,1.45,1.45,0,0,0,.89.27,1.53,1.53,0,0,0,1.12-.44l.51.58a1.64,1.64,0,0,1-.7.5,2.59,2.59,0,0,1-1,.17,2.52,2.52,0,0,1-1.19-.27,2,2,0,0,1-.8-.74,2.07,2.07,0,0,1-.28-1.08,2.16,2.16,0,0,1,.27-1.08,2,2,0,0,1,.76-.74,2.2,2.2,0,0,1,1.09-.27,2.16,2.16,0,0,1,1.08.27,1.88,1.88,0,0,1,.74.74,2.26,2.26,0,0,1,.26,1.1C106.18,270.56,106.18,270.66,106.17,270.78Zm-2.85-1.35a1.17,1.17,0,0,0-.39.72h2.34a1.12,1.12,0,0,0-1.17-1A1.17,1.17,0,0,0,103.32,269.43Z" style="fill:#6a6f82"/><path d="M110.33,268.82a1.68,1.68,0,0,1,.48,1.31v2.38h-.91V272a1.08,1.08,0,0,1-.5.41,2.21,2.21,0,0,1-1.6,0,1.2,1.2,0,0,1-.53-.43,1.15,1.15,0,0,1,.22-1.51,2,2,0,0,1,1.3-.34h1.06v-.06a.8.8,0,0,0-.26-.65,1.06,1.06,0,0,0-.76-.23,2.24,2.24,0,0,0-.68.1,1.54,1.54,0,0,0-.57.3l-.38-.69a2.36,2.36,0,0,1,.78-.38,3.71,3.71,0,0,1,1-.13A2,2,0,0,1,110.33,268.82Zm-.88,2.89a.92.92,0,0,0,.4-.47v-.47h-1c-.56,0-.83.18-.83.54a.48.48,0,0,0,.21.41.94.94,0,0,0,.57.15A1.22,1.22,0,0,0,109.45,271.71Z" style="fill:#6a6f82"/><path d="M114.81,268.39v.91l-.23,0a1.18,1.18,0,0,0-.87.32,1.3,1.3,0,0,0-.32.94v2h-1v-4.07h.91V269A1.64,1.64,0,0,1,114.81,268.39Z" style="fill:#6a6f82"/><path d="M116.71,272.3a2,2,0,0,1-.8-.74,2.07,2.07,0,0,1-.28-1.08,2,2,0,0,1,.28-1.08,2.08,2.08,0,0,1,.79-.74,2.41,2.41,0,0,1,1.15-.27,2.28,2.28,0,0,1,1.07.25,1.61,1.61,0,0,1,.69.7l-.74.43a1.29,1.29,0,0,0-.44-.43,1.27,1.27,0,0,0-.58-.14,1.31,1.31,0,0,0-.9,2.2,1.22,1.22,0,0,0,.9.35,1.27,1.27,0,0,0,.58-.14,1.26,1.26,0,0,0,.44-.42l.74.42a1.65,1.65,0,0,1-.7.71,2.27,2.27,0,0,1-1.06.25A2.37,2.37,0,0,1,116.71,272.3Z" style="fill:#6a6f82"/><path d="M124.36,268.84a1.75,1.75,0,0,1,.47,1.34v2.33h-1V270.3a1.11,1.11,0,0,0-.25-.8,1,1,0,0,0-.73-.27,1.13,1.13,0,0,0-.84.31,1.28,1.28,0,0,0-.3.91v2.06h-1v-5.66h1v2.06a1.5,1.5,0,0,1,.59-.38,2.13,2.13,0,0,1,.78-.14A1.72,1.72,0,0,1,124.36,268.84Z" style="fill:#6a6f82"/><path d="M38.56,93c0,1,23.35,77,23.35,77l111.39-4.65L153.57,93Z" style="fill:#e6e8ed"/><path d="M65.56,140.13c.28.57,3.14,9.22,3.14,9.22l42.21-1.13-3.58-8.09Z" style="fill:#251a51;opacity:0.11"/><path d="M90.35,125.1c.22.19,2.71,8.55,2.71,8.55h11l-2.53-8.55Z" style="fill:#251a51;opacity:0.11"/><path d="M104.93,125.1c.22.19,2.71,8.55,2.71,8.55h11l-2.54-8.55Z" style="fill:#251a51;opacity:0.11"/><path d="M119.51,125.1c.22.19,2.71,8.55,2.71,8.55h11l-2.54-8.55Z" style="fill:#251a51;opacity:0.11"/><path d="M54.08,109.6v0a6.47,6.47,0,0,0,6.24,4.48l61.59-.66a6.42,6.42,0,0,0,6.2-8h0a6.45,6.45,0,0,0-6.33-4.82l-61.6.62A6.44,6.44,0,0,0,54.08,109.6Z" style="fill:#fff"/><path d="M85.57,139.18l-4-7-5-3.36a2,2,0,0,1-.89-2l.59-4.11a4.3,4.3,0,0,1,.79-1.94l1.06-1.16s-5.55-6.53-4.36-6.92,7.31,7.37,8.51,7.51,2.14-.66,3.33-.14S88,123.77,88,123.77l.66,7.51,2.13,4.48Z" style="fill:#f9b9b4"/><path d="M143.31,108l.77,17.92a7.1,7.1,0,0,1-7.18,7.37h0a7.1,7.1,0,0,1-7.07-6.7l-.54-10.25Z" style="fill:#f9b9b4"/><path d="M163.8,169l.07-23.91-2.09-13.61a11.85,11.85,0,0,0-14.93-9.53l-13.08,3.66a30.94,30.94,0,0,0-11.41,6l-20.15,17L89.75,130.39l-7.61,5.28c0,1.51,9.13,33.19,17.88,32.06,6.24-.8,19.72-8.23,26-11a106.13,106.13,0,0,1,4,10l-1.15,28.21a8.94,8.94,0,0,0,8.85,9.26c11.56.17,30.59-1.82,36.45-15.95Z" style="fill:url(#c)"/><path d="M141.16,96.58l1,6.51s5.19-.48,4.82,4.4-4.28,3.68-4.28,3.68,1.87,11.86-11.05,10.93c-10.37-.74-12.61-13.38-13.84-24.22a7,7,0,0,1,6.74-7.75l8.39-.29A8,8,0,0,1,141.16,96.58Z" style="fill:#f9b9b4"/><path d="M127.06,87.48s10.52-5.76,16.78,1.11,6.49,22.63,11.86,25.52,15.22,3.33,16.79,12.87,6,10,6,10l-9.4,6-4.25-2,.89,4-4.92,2.22-3.36-2,.23,4.66s-4,5.77-6.72,0-.44-18.64-5.14-22-17-3.32-17-16c0,0,4.7-1.55,3.36-4.66s-5.15-1.55-5.15-1.55-4.48-1.56-4-5.33l-6.16,3S112,86.16,127.06,87.48Z" style="fill:#6a437c"/><path d="M118.25,101.36s.76,8.16,1.29,10.49c.29,1.24,1.3.75,1.3.75Z" style="fill:#f9b9b4"/><path d="M129.55,110.67c0-.06.35-.13.73-.5a1.09,1.09,0,0,0,.35-.76.82.82,0,0,0-.45-.8.67.67,0,0,0-.86.4l-.34-.1a5.81,5.81,0,0,1,.79-1.55,5.6,5.6,0,0,1-.46,1.68L129,109a1,1,0,0,1,1.36-.71,1.18,1.18,0,0,1,.67,1.19,1.32,1.32,0,0,1-.53.95C130,110.75,129.55,110.71,129.55,110.67Z" style="fill:#251a51"/><path d="M84.8,122a5.21,5.21,0,0,1-1.78-.89c-.92-.58-1.62-1.12-1.56-1.21a5,5,0,0,1,1.78.88C84.16,121.39,84.86,121.93,84.8,122Z" style="fill:#251a51"/><path d="M79,125.1c-.08.08-.68-.4-1.48-.88s-1.5-.77-1.47-.88a2.67,2.67,0,0,1,1.68.55C78.6,124.39,79.1,125,79,125.1Z" style="fill:#251a51"/><path d="M78.42,126.53c0,.1-.72,0-1.5-.39s-1.29-.84-1.22-.93.66.22,1.4.58S78.46,126.42,78.42,126.53Z" style="fill:#251a51"/><path d="M62.4,104.64s-.23-.07-.65-.14a2.75,2.75,0,0,0-1.69.26,2.56,2.56,0,0,0-1.37,2,2.52,2.52,0,0,0,1.38,2.51,2.54,2.54,0,0,0,3.64-2.69,2.66,2.66,0,0,0-.81-1.5c-.3-.29-.52-.4-.5-.43a1.29,1.29,0,0,1,.6.31,2.69,2.69,0,0,1,1,1.57,2.77,2.77,0,0,1-.81,2.59,2.91,2.91,0,0,1-3.29.51,2.88,2.88,0,0,1-1.57-2.91,2.82,2.82,0,0,1,1.61-2.2,2.73,2.73,0,0,1,1.86-.16A1.31,1.31,0,0,1,62.4,104.64Z" style="fill:#251a51"/><path d="M62.54,109.37c.08-.06.5.34.92.91s.69,1.07.6,1.14-.5-.34-.92-.91S62.45,109.44,62.54,109.37Z" style="fill:#251a51"/><g style="opacity:0.32"><path d="M116.53,109.11c0,.11-10.71.2-23.92.2s-23.91-.09-23.91-.2,10.7-.2,23.91-.2S116.53,109,116.53,109.11Z" style="fill:#251a51"/></g><path d="M61.19,125.1c.22.19,2.71,8.55,2.71,8.55h11l-2.53-8.55Z" style="fill:#edc483"/><path d="M179.34,124.46a2.25,2.25,0,0,1-.63.1,4,4,0,0,1-1.79-.34,6.94,6.94,0,0,1-2.31-1.74,17.16,17.16,0,0,1-2.12-3.14,10.74,10.74,0,0,0-2.83-3.48,8.71,8.71,0,0,0-4.95-1.28,25.35,25.35,0,0,1-5.86-.44,10.83,10.83,0,0,1-5.27-3.43,19.66,19.66,0,0,1-3.26-5.36c-.79-1.86-1.38-3.72-2-5.46-1.16-3.5-2.51-6.58-4.42-8.63a11,11,0,0,0-5.47-3.51,11.89,11.89,0,0,0-2.41-.27,4.75,4.75,0,0,1,.63-.06,8.17,8.17,0,0,1,1.82.18,11,11,0,0,1,5.64,3.47,15.77,15.77,0,0,1,2.58,3.82,40,40,0,0,1,2,4.88c.61,1.75,1.19,3.59,2,5.43a19.48,19.48,0,0,0,3.2,5.25,10.5,10.5,0,0,0,5.07,3.32,25.83,25.83,0,0,0,5.77.44,9.08,9.08,0,0,1,5.13,1.38,11,11,0,0,1,2.88,3.61,18.56,18.56,0,0,0,2.05,3.14,7,7,0,0,0,2.2,1.74,4.25,4.25,0,0,0,1.73.4A5.92,5.92,0,0,1,179.34,124.46Z" style="fill:#6a437c"/><path d="M148.31,150.84a4.84,4.84,0,0,1-1.7-.33,7.06,7.06,0,0,1-3.59-3,6.38,6.38,0,0,1-1-3.13,9.73,9.73,0,0,1,.74-3.67c.47-1.24,1.06-2.47,1.51-3.8a9.12,9.12,0,0,0,.46-2.07,6,6,0,0,0-.18-2.14,7.93,7.93,0,0,0-2.34-3.54,18.34,18.34,0,0,0-3.33-2.35c-2.27-1.3-4.4-2.48-5.74-4a7.36,7.36,0,0,1-2-4.23,4.58,4.58,0,0,1,.08-1.28,1.43,1.43,0,0,1,.13-.43,6.66,6.66,0,0,0,0,1.69,7.31,7.31,0,0,0,2,4.06,23,23,0,0,0,5.72,3.88,18.69,18.69,0,0,1,3.4,2.38,8.29,8.29,0,0,1,2.46,3.73,6.31,6.31,0,0,1,.2,2.28,9.6,9.6,0,0,1-.49,2.15c-.46,1.36-1.07,2.6-1.53,3.81a9.42,9.42,0,0,0-.75,3.53,6.16,6.16,0,0,0,.85,3,7.16,7.16,0,0,0,3.4,3A10.65,10.65,0,0,0,148.31,150.84Z" style="fill:#6a437c"/><path d="M129.79,104.89s-.06.16-.27.38a3.37,3.37,0,0,1-1.06.73,4.1,4.1,0,0,1-1.88.37,3.74,3.74,0,0,1-3.59-2.68,4.11,4.11,0,0,1-.15-1.9,3.19,3.19,0,0,1,.41-1.2c.16-.26.28-.38.3-.37a7.35,7.35,0,0,0-.43,1.61,4,4,0,0,0,1.46,3.47,4,4,0,0,0,3.77.44A7.63,7.63,0,0,0,129.79,104.89Z" style="fill:#6a437c"/><path d="M129.94,111.9c0-.05.33.12.31.6a.94.94,0,0,1-.37.7,1,1,0,0,1-1,0,1,1,0,0,1-.6-.77,1.12,1.12,0,0,1,.19-.76c.26-.36.56-.4.57-.35s-.19.18-.33.49a.76.76,0,0,0,.34,1,.65.65,0,0,0,.61,0,.69.69,0,0,0,.3-.43C130.05,112.13,129.89,111.93,129.94,111.9Z" style="fill:#9a9aa0"/><path d="M128.13,85.19a5.27,5.27,0,0,1,.25,2,5.14,5.14,0,0,1-.15,2,5.27,5.27,0,0,1-.25-2A5.14,5.14,0,0,1,128.13,85.19Z" style="fill:#6a437c"/><path d="M126.17,85.22a6.87,6.87,0,0,1,2.09,4.3,19.22,19.22,0,0,1-1-2.16A18.84,18.84,0,0,1,126.17,85.22Z" style="fill:#6a437c"/><g style="opacity:0.18"><path d="M171,182.18c.05,0,.14.26-.13.64a2,2,0,0,1-1.81.59c-.82-.1-1.65-.63-2.45-.56a3.35,3.35,0,0,0-2.38,1.55,12.58,12.58,0,0,0-1.42,3.69,7.41,7.41,0,0,1-2.92,4.5,4.23,4.23,0,0,1-1.57.59,3.24,3.24,0,0,1-.88,0l-.44,0-.42-.12a6.21,6.21,0,0,1-2.64-1.84c-.68-.74-1.25-1.5-1.86-2.16a4.4,4.4,0,0,0-1.89-1.38,2,2,0,0,0-1.89.42,6.65,6.65,0,0,0-1.53,1.9c-.21.38-.4.75-.6,1.17s-.42.84-.66,1.25a8.13,8.13,0,0,1-1.86,2.31,4.15,4.15,0,0,1-3,1,4.93,4.93,0,0,1-2.61-1.1,8.51,8.51,0,0,1-1.64-1.79c-.43-.62-.77-1.22-1.1-1.76a8.31,8.31,0,0,0-2-2.49,3.58,3.58,0,0,0-2.2-.67c-1.33,0-1.77.86-1.9.75s0-.26.21-.6a2.55,2.55,0,0,1,1.6-.92,4.27,4.27,0,0,1,2.89.5,8.91,8.91,0,0,1,2.62,2.67,11.55,11.55,0,0,0,2.56,3,3.31,3.31,0,0,0,1.72.67,2.35,2.35,0,0,0,1.67-.63,6.29,6.29,0,0,0,1.37-1.82c.2-.36.39-.75.57-1.15s.41-.87.65-1.3a8,8,0,0,1,2-2.5,4.32,4.32,0,0,1,1.69-.83,4.07,4.07,0,0,1,2,.05,6.34,6.34,0,0,1,2.84,2c.68.77,1.24,1.53,1.82,2.17,1.15,1.34,2.41,1.85,3.54,1.15a4.23,4.23,0,0,0,1.42-1.46,9.91,9.91,0,0,0,.88-2,12.65,12.65,0,0,1,1.88-4,4.45,4.45,0,0,1,3.51-1.81,3.89,3.89,0,0,1,1.57.45,8.69,8.69,0,0,0,1.05.47,1.64,1.64,0,0,0,1.34-.12C170.86,182.36,170.93,182.16,171,182.18Z" style="fill:#eeedf2"/></g><g style="opacity:0.18"><path d="M166,173.53c-.1.13-.65-.37-1.72-.13a3.34,3.34,0,0,0-1.65.94,8.11,8.11,0,0,0-1.37,2.3c-.23.49-.46,1-.76,1.57a7,7,0,0,1-1.25,1.66,4.29,4.29,0,0,1-2.13,1.17,3.65,3.65,0,0,1-2.67-.55c-1.51-1-2.22-2.45-3.2-3.41a3.13,3.13,0,0,0-1.52-1,3.28,3.28,0,0,0-1.84.16,5.9,5.9,0,0,0-2.88,2.83c-.35.61-.64,1.32-1,2a7.16,7.16,0,0,1-1.53,2,3.21,3.21,0,0,1-2.68.79,3.53,3.53,0,0,1-2.14-1.34c-.91-1.14-1.34-2.22-1.95-3a3.81,3.81,0,0,0-2.05-1.39,4.8,4.8,0,0,0-2-.15c-1.12.16-1.69.57-1.79.44s.33-.74,1.6-1.19a5,5,0,0,1,2.42-.18,4.9,4.9,0,0,1,2.89,1.57c.81.89,1.38,2,2.12,2.81a1.85,1.85,0,0,0,1.15.69,1.42,1.42,0,0,0,1.19-.44,5.55,5.55,0,0,0,1-1.52c.33-.61.6-1.32,1-2.07a9.82,9.82,0,0,1,1.52-2.15,6.51,6.51,0,0,1,2.39-1.61,4.81,4.81,0,0,1,5.48,1.31,21.88,21.88,0,0,1,1.5,1.86,6.16,6.16,0,0,0,1.3,1.37,2,2,0,0,0,2.65-.31A8.87,8.87,0,0,0,160,176a8.45,8.45,0,0,1,1.89-2.5,4,4,0,0,1,2.32-.88,2.38,2.38,0,0,1,1.5.44C166,173.3,166.08,173.49,166,173.53Z" style="fill:#eeedf2"/></g><g style="opacity:0.12"><path d="M164.27,162.33c-.06.16-.69-.13-1.57.34a4.12,4.12,0,0,0-1.34,1.24,4.77,4.77,0,0,0-.58,1c-.18.42-.37.85-.56,1.31a10.68,10.68,0,0,1-.76,1.51,4.83,4.83,0,0,1-1.39,1.48,4.27,4.27,0,0,1-2.2.69,6,6,0,0,1-2.25-.41,11.08,11.08,0,0,1-2-1c-.32-.19-.63-.39-.94-.6s-.57-.4-.86-.58a6.24,6.24,0,0,0-3.57-1.25,2.45,2.45,0,0,0-1.45.68,5.4,5.4,0,0,0-1.06,1.53,17.49,17.49,0,0,1-2.08,3.87,4.58,4.58,0,0,1-2,1.36,3.19,3.19,0,0,1-4-1.53c-.31-.55-.5-1-.71-1.46a4.34,4.34,0,0,0-3.32-2.34c-1-.15-1.66,0-1.72-.12s.5-.56,1.75-.65a5,5,0,0,1,4.53,2.44c.55.92,1,1.92,1.68,2.11a2.35,2.35,0,0,0,2.37-1,17.81,17.81,0,0,0,1.73-3.55,7.34,7.34,0,0,1,1.45-2.1,4.41,4.41,0,0,1,2.62-1.23,5.72,5.72,0,0,1,2.72.45,12.26,12.26,0,0,1,2.13,1.14c.32.21.62.43.92.64s.56.4.84.58a10.25,10.25,0,0,0,1.65.89,4.52,4.52,0,0,0,1.56.37,2.54,2.54,0,0,0,1.32-.33,5.42,5.42,0,0,0,1.77-2.22c.24-.43.46-.86.71-1.27a5.3,5.3,0,0,1,.85-1.13,4.46,4.46,0,0,1,1.91-1.24,2.28,2.28,0,0,1,1.47,0C164.19,162.13,164.3,162.28,164.27,162.33Z" style="fill:#eeedf2"/></g><g style="opacity:0.12"><path d="M164.2,153.12c-.09.14-.63-.32-1.61-.05A3.83,3.83,0,0,0,161,154a12,12,0,0,0-1.54,2.1,10.17,10.17,0,0,1-1.08,1.36,4.84,4.84,0,0,1-1.74,1.12,6.79,6.79,0,0,1-4.34-.12,42.64,42.64,0,0,1-4-1.67,6.53,6.53,0,0,0-3.82-.61,3.06,3.06,0,0,0-1.5.87,9,9,0,0,0-1.17,1.62c-.37.61-.7,1.25-1.18,1.91a6.87,6.87,0,0,1-1.68,1.68,4.12,4.12,0,0,1-2.39.76,3.75,3.75,0,0,1-2.22-.86,30.79,30.79,0,0,1-2.29-2.54,2.68,2.68,0,0,0-2-1,3.19,3.19,0,0,0-1.7.5c-.88.56-1.08,1.2-1.24,1.14s-.09-.19,0-.51a2.53,2.53,0,0,1,.75-1.22,3.68,3.68,0,0,1,2.13-1,3.32,3.32,0,0,1,1.56.17,4.65,4.65,0,0,1,1.44.88c.86.73,1.54,1.68,2.35,2.26a2,2,0,0,0,2.52-.09,5.45,5.45,0,0,0,1.19-1.28c.34-.49.67-1.14,1-1.79a10.44,10.44,0,0,1,1.43-2,5,5,0,0,1,2.45-1.42,6.18,6.18,0,0,1,2.74,0,12.23,12.23,0,0,1,2.33.75c1.45.63,2.61,1.33,3.81,1.73a5.2,5.2,0,0,0,3.22.29,4.58,4.58,0,0,0,2.22-1.75,10.84,10.84,0,0,1,2-2.13,4.23,4.23,0,0,1,2.17-.82,2.08,2.08,0,0,1,1.43.38C164.18,152.9,164.24,153.08,164.2,153.12Z" style="fill:#eeedf2"/></g><path d="M102.06,149.26c.11.06-.83,1.71-1.44,4s-.68,4.12-.8,4.12a12.28,12.28,0,0,1,2.24-8.07Z" style="fill:#6a437c"/><path d="M103.43,156.33a9.44,9.44,0,0,1-1-8,26,26,0,0,0,0,4A26,26,0,0,0,103.43,156.33Z" style="fill:#6a437c"/><g style="opacity:0.25"><path d="M130.37,126a4.89,4.89,0,0,1,1,0,7.84,7.84,0,0,1,2.8.73,9.63,9.63,0,0,1,3.56,2.86,9.86,9.86,0,0,1,2,5.64,13.35,13.35,0,0,1-1.72,7.06,17.83,17.83,0,0,1-2.44,3.29,22.3,22.3,0,0,1-3.31,2.83,47,47,0,0,1-8.19,4.43l-9.17,4-9.17,4a31.07,31.07,0,0,1-4.46,1.72,7.38,7.38,0,0,1-2.34.25,5.84,5.84,0,0,1-2.23-.58,9.69,9.69,0,0,1-3.32-2.84,25.48,25.48,0,0,1-2.19-3.45,57.72,57.72,0,0,1-3.07-6.62c-1.61-4.16-2.6-7.63-3.28-10-.33-1.18-.58-2.11-.76-2.76l-.19-.72a1,1,0,0,1-.05-.25s0,.07.09.23.13.42.22.72l.84,2.74c.73,2.37,1.75,5.83,3.39,10a59.49,59.49,0,0,0,3.1,6.56,25.66,25.66,0,0,0,2.18,3.4,9.35,9.35,0,0,0,3.19,2.72,6.18,6.18,0,0,0,4.33.3,30.65,30.65,0,0,0,4.39-1.72l9.17-4,9.17-4a47.29,47.29,0,0,0,8.14-4.38,22,22,0,0,0,3.26-2.77,17.61,17.61,0,0,0,2.41-3.21,13.14,13.14,0,0,0,1.73-6.89,9.74,9.74,0,0,0-1.9-5.52,9.56,9.56,0,0,0-3.44-2.85,8.41,8.41,0,0,0-2.75-.79C130.72,125.94,130.37,126,130.37,126Z" style="fill:#6a437c"/></g><g style="opacity:0.25"><path d="M132.8,202.49a3.71,3.71,0,0,1,0-.55c0-.4.09-.92.16-1.57.15-1.4.36-3.35.62-5.74a187.65,187.65,0,0,0,1.23-19A85,85,0,0,0,133,156.77c-.54-2.37-1.08-4.27-1.5-5.57-.19-.65-.37-1.15-.48-1.49a2,2,0,0,1-.14-.53,2.79,2.79,0,0,1,.22.5c.13.34.33.83.55,1.47a57.33,57.33,0,0,1,1.63,5.56,80.59,80.59,0,0,1,2,18.94,165.59,165.59,0,0,1-1.35,19c-.3,2.43-.56,4.38-.75,5.73-.09.65-.17,1.16-.23,1.56A2.56,2.56,0,0,1,132.8,202.49Z" style="fill:#6a437c"/></g><g style="opacity:0.25"><path d="M130.74,154.9a9.64,9.64,0,0,1-2.51,1.2,9.73,9.73,0,0,1-2.65.84,10.06,10.06,0,0,1,2.51-1.21A9.91,9.91,0,0,1,130.74,154.9Z" style="fill:#6a437c"/></g><path d="M73.73,112.71s-.34.09-.08.67.46.94.46.94.63-.14.52-.45A6.81,6.81,0,0,0,73.73,112.71Z" style="fill:#6a437c"/><path d="M121,107c-.09.06-.34-.15-.46-.52s0-.68.08-.68.21.26.31.57S121.12,106.92,121,107Z" style="fill:#251a51"/><path d="M121.21,103c0,.11-.38.09-.76.19s-.68.28-.77.2.15-.45.67-.58S121.26,102.94,121.21,103Z" style="fill:#251a51"/><g style="opacity:0.22"><path d="M126.37,111.44a2,2,0,0,1-1.21,2.8,2,2,0,0,1-2.87-1.07,2.19,2.19,0,0,1,1.3-2.57A2.24,2.24,0,0,1,126.37,111.44Z" style="fill:#e3707f"/></g><g style="opacity:0.25;mix-blend-mode:multiply"><path d="M58.51,96.33c-1.8.41-3.66.39-4.33-1.41-.51-1.34.36-2.31.73-3.58A4.39,4.39,0,0,0,54,87.16c-2-2.29-6.89-2.56-8.15.41a1.08,1.08,0,0,0,1.49,1.25c1-.49,2.17-1.35,3.47-.95,1.94.61,1.64,2.53,1.16,3.83-.54,1.47-1,2.82-.21,4.33,1.28,2.56,5.16,3.72,7.45,1.62a.77.77,0,0,0-.69-1.32Z" style="fill:#3d3d3d"/></g><path d="M57,94.8c-1.8.42-3.65.4-4.33-1.4-.51-1.34.36-2.31.73-3.58a4.36,4.36,0,0,0-.92-4.18c-2-2.3-6.89-2.56-8.15.41a1.08,1.08,0,0,0,1.49,1.25c1-.5,2.17-1.36,3.47-1,1.94.6,1.64,2.53,1.16,3.82-.54,1.47-1,2.83-.21,4.34,1.28,2.56,5.16,3.72,7.45,1.62A.77.77,0,0,0,57,94.8Z" style="fill:#e3707f"/><g style="opacity:0.25;mix-blend-mode:multiply"><path d="M79,94.71a10.69,10.69,0,0,0,3.08-2.88l3.23-3.6c.89-1-.76-2.29-1.65-1.28s-2,2.28-3,3.43-2.13,2.06-2.56,3.38c-.18.55.31,1.23.93.95Z" style="fill:#3d3d3d"/></g><path d="M77.51,93.19a10.78,10.78,0,0,0,3.07-2.88l3.23-3.6c.89-1-.76-2.29-1.65-1.29l-3,3.43c-.9,1-2.13,2.07-2.56,3.39-.18.55.31,1.23.94,1Z" style="fill:#e8947e"/><g style="opacity:0.25;mix-blend-mode:multiply"><path d="M57,70.05A1.56,1.56,0,0,0,56.33,68a1.59,1.59,0,0,0-2.1.66,1.55,1.55,0,0,0,.66,2.09,1.59,1.59,0,0,0,2.1-.66Z" style="fill:#3d3d3d"/></g><path d="M55.45,68.53a1.55,1.55,0,0,0-.66-2.09,1.59,1.59,0,0,0-2.1.66,1.55,1.55,0,0,0,.66,2.09,1.59,1.59,0,0,0,2.1-.66Z" style="fill:#251a51"/><g style="opacity:0.25;mix-blend-mode:multiply"><path d="M67.9,73.21a4.59,4.59,0,0,0,3.76,6.36,5.31,5.31,0,0,0,5.79-5.42,5.38,5.38,0,0,0-5.92-4.77c-2.77.4-5.38,3.63-4.09,6.37.4.85,1.85.52,2-.35.24-1.54.32-3.06,2-3.72A3,3,0,0,1,75.2,74a3.1,3.1,0,0,1-3,3.44c-1.88.06-3.8-2.24-3.64-4.06a.36.36,0,0,0-.7-.14Z" style="fill:#3d3d3d"/></g><path d="M66.36,71.68c-1,2.88.48,6,3.76,6.36a5.3,5.3,0,0,0,5.79-5.42A5.37,5.37,0,0,0,70,67.86c-2.76.4-5.38,3.63-4.09,6.36a1.1,1.1,0,0,0,2-.35c.24-1.53.32-3.06,2-3.71a3,3,0,0,1,3.72,2.29,3.11,3.11,0,0,1-3,3.44c-1.88.06-3.8-2.24-3.63-4.06a.36.36,0,0,0-.71-.15Z" style="fill:#edc483"/><g style="opacity:0.25;mix-blend-mode:multiply"><path d="M41.52,108.34a27.74,27.74,0,0,0-5.45-5.89c-1-.69-2.63.3-1.78,1.47a27.48,27.48,0,0,0,6,5.45c.68.5,1.86-.23,1.25-1Z" style="fill:#3d3d3d"/></g><path d="M40,106.82a27.25,27.25,0,0,0-5.45-5.89c-1-.69-2.63.3-1.78,1.46a27.5,27.5,0,0,0,6,5.46c.68.5,1.86-.23,1.25-1Z" style="fill:#dbea83"/><g style="opacity:0.25;mix-blend-mode:multiply"><path d="M69.25,58.85a27.08,27.08,0,0,0,2.21-7.69c.09-1.18-1.63-2.06-2.19-.74a27.63,27.63,0,0,0-1.56,7.91c-.07.84,1.17,1.45,1.54.52Z" style="fill:#3d3d3d"/></g><path d="M67.71,57.33a27.08,27.08,0,0,0,2.21-7.69c.09-1.18-1.63-2.07-2.19-.74a27.63,27.63,0,0,0-1.56,7.91c-.07.83,1.17,1.45,1.54.52Z" style="fill:#6a437c"/><g style="opacity:0.25;mix-blend-mode:multiply"><path d="M44.21,126.49c1.48,2,3.06,4.94,5.25,6.34,2.66,1.7,3.35-1.67,3.85-3.52s2.28-5.57-.44-6.4c-1.22-.38-2.67.31-3.8.65L44.14,125a1.33,1.33,0,0,0,.8,2.54l3.67-1.2c.68-.22,3.11-1.42,3.78-.95l-.6-.71c.4.9-.48,2.92-.7,3.82-.15.61-.36,1.24-.45,1.86-.15,1-.1.5-.73-.06a57,57,0,0,0-5.1-4.32c-.33-.23-.89.1-.6.5Z" style="fill:#3d3d3d"/></g><path d="M42.67,125c1.48,2.06,3.06,5,5.25,6.35,2.66,1.7,3.35-1.67,3.85-3.52s2.28-5.57-.44-6.41c-1.21-.37-2.66.32-3.8.66l-4.93,1.45a1.33,1.33,0,0,0,.81,2.54l3.66-1.2c.68-.23,3.11-1.42,3.78-1l-.6-.71c.4.9-.48,2.91-.7,3.82-.15.61-.36,1.24-.45,1.86-.15,1-.1.5-.73-.06a53.89,53.89,0,0,0-5.1-4.32c-.33-.23-.89.1-.6.49Z" style="fill:#8aa9fc"/><g style="clip-path:url(#d)"><g style="opacity:0.42"><g style="opacity:0.25;mix-blend-mode:multiply"><path d="M-14.36,192.48c-7.68,21.74,3.61,45.23,28.38,48,23.12,2.6,45.44-17.7,43.69-40.91-1.63-21.52-23-39-44.65-35.94-20.89,3-40.66,27.4-30.91,48,3.07,6.49,14,4,15-2.64C-1,197.4-.39,185.92,12.65,181c12.18-4.62,25.77,5.15,28.13,17.31,2.5,12.92-9.57,25.53-22.41,25.93-14.18.44-28.68-16.91-27.4-30.6a2.73,2.73,0,0,0-5.33-1.13Z" style="fill:#3d3d3d"/></g><path d="M-16.36,190.48c-7.68,21.74,3.61,45.23,28.38,48,23.12,2.6,45.44-17.7,43.69-40.91-1.63-21.52-23-39-44.65-35.94-20.89,3-40.66,27.4-30.91,48,3.07,6.49,14,4,15-2.64C-3,195.4-2.39,183.92,10.65,179c12.18-4.62,25.77,5.15,28.13,17.31,2.5,12.92-9.57,25.53-22.41,25.93-14.18.44-28.68-16.91-27.4-30.6a2.73,2.73,0,0,0-5.33-1.13Z" style="fill:#6a437c"/></g><g style="opacity:0.47000000000000003"><g style="opacity:0.25;mix-blend-mode:multiply"><path d="M205.19,301.51c-11.81,2.72-24.05,2.58-28.51-9.24-3.33-8.8,2.42-15.21,4.83-23.57a28.78,28.78,0,0,0-6.07-27.51c-13.28-15.12-45.37-16.86-53.63,2.68-2.07,4.88,4.15,11,9.81,8.26,6.83-3.28,14.3-8.93,22.82-6.28,12.8,4,10.81,16.65,7.65,25.19-3.59,9.67-6.33,18.58-1.36,28.54,8.42,16.86,34,24.47,49,10.68,3.33-3,1.47-10.13-4.54-8.75Z" style="fill:#3d3d3d"/></g><path d="M203.19,299.51c-11.81,2.72-24.05,2.58-28.51-9.24-3.33-8.8,2.42-15.21,4.83-23.57a28.78,28.78,0,0,0-6.07-27.51c-13.28-15.12-45.37-16.86-53.63,2.68-2.07,4.88,4.15,11,9.81,8.26,6.83-3.28,14.3-8.93,22.82-6.28,12.8,4,10.81,16.65,7.65,25.19-3.59,9.67-6.33,18.58-1.36,28.54,8.42,16.86,34,24.47,49,10.68,3.33-3,1.47-10.13-4.54-8.75Z" style="fill:#e3707f"/></g><g style="opacity:0.41000000000000003"><g style="opacity:0.25;mix-blend-mode:multiply"><path d="M26.86,42.12C36.74,37.6,43.5,27.75,50.61,19.86c8.33-9.25,16.68-18.49,25-27.79,6.91-7.76-5.85-17.67-12.74-9.94Q51.07-4.66,39.42,8.64c-7,7.92-16.49,16-19.78,26.16-1.37,4.23,2.41,9.52,7.22,7.32Z" style="fill:#3d3d3d"/></g><path d="M24.86,40.12C34.74,35.6,41.5,25.75,48.61,17.86c8.33-9.25,16.68-18.49,25-27.79,6.91-7.76-5.85-17.67-12.74-9.94Q49.07-6.66,37.42,6.64c-7,7.92-16.49,16-19.78,26.16-1.37,4.23,2.41,9.52,7.22,7.32Z" style="fill:#edc483"/></g><g style="opacity:0.37"><g style="opacity:0.25;mix-blend-mode:multiply"><path d="M130.93,49c11.46,15.91,23.74,38.31,40.68,49.16,20.65,13.21,26-12.92,29.87-27.29,3.63-13.5,17.66-43.16-3.44-49.62-9.4-2.88-20.64,2.47-29.44,5.06L130.38,37.52c-12.85,3.78-6.48,23.83,6.26,19.67L165,47.91c5.3-1.73,24.08-11,29.3-7.37l-4.65-5.48c3.13,7-3.72,22.58-5.42,29.59-1.15,4.74-2.77,9.6-3.49,14.43-1.18,7.82-.79,3.88-5.64-.46-13-11.68-25.14-23.38-39.54-33.48-2.56-1.8-6.88.76-4.66,3.83Z" style="fill:#3d3d3d"/></g><path d="M128.93,47c11.46,15.91,23.74,38.31,40.68,49.16,20.65,13.21,26-12.92,29.87-27.29,3.63-13.5,17.66-43.16-3.44-49.62-9.4-2.88-20.64,2.47-29.44,5.06L128.38,35.52c-12.85,3.78-6.48,23.83,6.26,19.67L163,45.91c5.3-1.73,24.08-11,29.3-7.37l-4.65-5.48c3.13,7-3.72,22.58-5.42,29.59-1.15,4.74-2.77,9.6-3.49,14.43-1.18,7.82-.79,3.88-5.64-.46-13-11.68-25.14-23.38-39.54-33.48-2.56-1.8-6.88.76-4.66,3.83Z" style="fill:#8aa9fc"/></g></g><g style="opacity:0.1;mix-blend-mode:multiply"><path d="M109.31,205.72l5.06-.32a1.33,1.33,0,0,0,1.39-1.27l.55-15a1.32,1.32,0,0,0-1.33-1.37H112.4l.92-5.68-8.38,5.68H78.25a1.33,1.33,0,0,0-1.32,1.55l2.9,16.76a1.34,1.34,0,0,0,1.41,1.1l25.43-1.26" style="fill:#7f7f7f"/><rect x="83.04" y="194.32" width="29.36" height="1.35" rx="0.58" style="fill:#7f7f7f"/><rect x="83.35" y="197.45" width="18.19" height="1.35" rx="0.58" style="fill:#7f7f7f"/></g><path d="M105.31,201.72l5.06-.32a1.33,1.33,0,0,0,1.39-1.27l.55-15a1.32,1.32,0,0,0-1.33-1.37H108.4l.92-5.68-8.38,5.68H74.25a1.33,1.33,0,0,0-1.32,1.55l2.9,16.76a1.34,1.34,0,0,0,1.41,1.1l25.43-1.26" style="fill:#edc483"/><rect x="79.04" y="190.32" width="29.36" height="1.35" rx="0.58" style="fill:#fff"/><rect x="79.35" y="193.45" width="18.19" height="1.35" rx="0.58" style="fill:#fff"/><g style="opacity:0.46"><path d="M152,13.44a.45.45,0,1,1,0,.9.45.45,0,0,1,0-.9Z" style="fill:#251a51"/><path d="M153.05,12.8a0,0,0,0,1,0,0h0a1.49,1.49,0,0,0-2,0l-.07.07-.09.09a.28.28,0,0,0,.4.4l.16-.16a.92.92,0,0,1,1.29,0l.12.11a.28.28,0,0,0,.4,0,.28.28,0,0,0,.08-.2.27.27,0,0,0-.08-.19Z" style="fill:#251a51"/><path d="M153.82,12.25l-.09-.1h0l-.07-.07,0,0a2.49,2.49,0,0,0-3.34.07h0l-.17.17a.26.26,0,0,0,0,.37.25.25,0,0,0,.36,0l.17-.17h0a2,2,0,0,1,2.69,0l.13.13a.27.27,0,0,0,.37,0A.25.25,0,0,0,153.82,12.25Z" style="fill:#251a51"/></g><g style="opacity:0.48"><path d="M24.18,14.68l-.09,0a.18.18,0,0,1,0-.09V12.08l.05,0-.56.34h-.06a.13.13,0,0,1-.1,0,.18.18,0,0,1,0-.09s0-.07.07-.1l.7-.42a.16.16,0,0,1,.1,0l.08,0a.12.12,0,0,1,0,.09v2.63a.12.12,0,0,1,0,.09A.17.17,0,0,1,24.18,14.68Z" style="fill:#251a51"/><path d="M25.94,14.73a.83.83,0,0,1-.56-.2,1.14,1.14,0,0,1-.33-.53,2.29,2.29,0,0,1-.11-.76,2.19,2.19,0,0,1,.11-.75,1.1,1.1,0,0,1,.33-.53.83.83,0,0,1,.56-.2.82.82,0,0,1,.56.2,1.19,1.19,0,0,1,.34.53,2.47,2.47,0,0,1,.11.75,2.58,2.58,0,0,1-.11.76,1.25,1.25,0,0,1-.34.53A.82.82,0,0,1,25.94,14.73Zm0-.26a.59.59,0,0,0,.41-.15,1,1,0,0,0,.25-.43,2.51,2.51,0,0,0,.08-.65,2.43,2.43,0,0,0-.08-.64,1,1,0,0,0-.25-.44.64.64,0,0,0-.82,0,1,1,0,0,0-.24.44,2.06,2.06,0,0,0-.09.64,2.13,2.13,0,0,0,.09.65,1,1,0,0,0,.24.43A.59.59,0,0,0,25.94,14.47Z" style="fill:#251a51"/><path d="M27.55,13a.14.14,0,0,1-.11-.05.16.16,0,0,1,0-.11v-.09a.2.2,0,0,1,0-.11.14.14,0,0,1,.11,0h0a.14.14,0,0,1,.11,0,.21.21,0,0,1,0,.11v.09a.16.16,0,0,1,0,.11.14.14,0,0,1-.11.05Zm0,1.71a.14.14,0,0,1-.11,0,.2.2,0,0,1,0-.11v-.09a.21.21,0,0,1,0-.12.14.14,0,0,1,.11,0h0a.14.14,0,0,1,.11,0,.21.21,0,0,1,0,.12v.09a.21.21,0,0,1,0,.11.14.14,0,0,1-.11,0Z" style="fill:#251a51"/><path d="M28.31,14.26h.05l.05,0a.57.57,0,0,0,.21.13.61.61,0,0,0,.28.05.81.81,0,0,0,.37-.09.63.63,0,0,0,.26-.25.7.7,0,0,0,.11-.38.66.66,0,0,0-.11-.38.64.64,0,0,0-.27-.22.8.8,0,0,0-.34-.07h-.23a.09.09,0,0,1-.08,0,.12.12,0,0,1,0-.09.06.06,0,0,1,0,0l0-.05.85-.94.05.07H28.26a.14.14,0,0,1-.12-.12.08.08,0,0,1,0-.08.09.09,0,0,1,.08,0h1.4a.11.11,0,0,1,.1,0,.11.11,0,0,1,0,.08.09.09,0,0,1,0,.05.05.05,0,0,1,0,0L28.9,13l-.09-.06.08,0H29a1,1,0,0,1,.43.11.84.84,0,0,1,.32.3.89.89,0,0,1,.13.5.92.92,0,0,1-.14.5.94.94,0,0,1-.37.34,1.07,1.07,0,0,1-.51.12,1,1,0,0,1-.34-.06,1.05,1.05,0,0,1-.29-.17l0-.05a.11.11,0,0,1,0,0,.17.17,0,0,1,0-.1A.1.1,0,0,1,28.31,14.26Z" style="fill:#251a51"/><path d="M31.35,14.73a.83.83,0,0,1-.56-.2,1.25,1.25,0,0,1-.34-.53,2.58,2.58,0,0,1-.11-.76,2.47,2.47,0,0,1,.11-.75,1.19,1.19,0,0,1,.34-.53.88.88,0,0,1,1.12,0,1.1,1.1,0,0,1,.33.53,2.19,2.19,0,0,1,.12.75,2.29,2.29,0,0,1-.12.76,1.14,1.14,0,0,1-.33.53A.83.83,0,0,1,31.35,14.73Zm0-.26a.59.59,0,0,0,.41-.15,1,1,0,0,0,.25-.43,2.51,2.51,0,0,0,.08-.65A2.43,2.43,0,0,0,32,12.6a1,1,0,0,0-.25-.44.64.64,0,0,0-.82,0,1,1,0,0,0-.25.44,2.43,2.43,0,0,0-.08.64,2.51,2.51,0,0,0,.08.65,1,1,0,0,0,.25.43A.59.59,0,0,0,31.35,14.47Z" style="fill:#251a51"/><path d="M35.08,12.12l-1,2.49,0,.06-.07,0a.12.12,0,0,1-.09,0,.11.11,0,0,1,0-.08v-.05l1.1-2.66a.1.1,0,0,1,.05-.06l.07,0,.08,0,0,.06,1.1,2.65v.05a.12.12,0,0,1,0,.09l-.09,0-.07,0L36,14.61,35,12.1Zm-.77,1.73.11-.24H35.7l0,.24Z" style="fill:#251a51"/><path d="M36.92,11.8H37a.12.12,0,0,1,.05,0l1.15,1.7h-.11l1.15-1.7a.11.11,0,0,1,.11-.06.09.09,0,0,1,.08,0,.1.1,0,0,1,0,.09v2.63a.12.12,0,0,1-.13.12.17.17,0,0,1-.1,0,.16.16,0,0,1,0-.09V12.18h.07l-1,1.57a.08.08,0,0,1,0,0h-.11a.08.08,0,0,1,0,0L37,12.17l.08-.05v2.44a.12.12,0,0,1,0,.09.11.11,0,0,1-.08,0,.12.12,0,0,1-.09,0,.16.16,0,0,1,0-.09V11.93a.12.12,0,0,1,0-.09A.1.1,0,0,1,36.92,11.8Z" style="fill:#251a51"/></g><g style="opacity:0.48"><path d="M157.61,12.94v0a1,1,0,0,1,.24.15.84.84,0,0,1,.18.24.72.72,0,0,1,.06.29A.63.63,0,0,1,158,14a.74.74,0,0,1-.3.28,1,1,0,0,1-.86,0,.74.74,0,0,1-.3-.28.63.63,0,0,1-.11-.38.6.6,0,0,1,.07-.3.58.58,0,0,1,.18-.23,1.14,1.14,0,0,1,.23-.15l0,0a.77.77,0,0,1-.19-.14.57.57,0,0,1-.15-.21.6.6,0,0,1-.06-.27.66.66,0,0,1,.1-.37.8.8,0,0,1,.28-.27.88.88,0,0,1,.4-.1.87.87,0,0,1,.39.1.73.73,0,0,1,.28.27.66.66,0,0,1,.1.37.64.64,0,0,1-.06.28.83.83,0,0,1-.34.34Zm-.37,1.18a.61.61,0,0,0,.43-.16.46.46,0,0,0,.17-.38.54.54,0,0,0-.08-.28.51.51,0,0,0-.22-.19.68.68,0,0,0-.6,0,.51.51,0,0,0-.22.19.46.46,0,0,0-.08.28.48.48,0,0,0,.16.38A.64.64,0,0,0,157.24,14.12Zm-.54-1.8a.51.51,0,0,0,.07.28.58.58,0,0,0,.2.18.64.64,0,0,0,.27.07.59.59,0,0,0,.26-.07.58.58,0,0,0,.2-.18.51.51,0,0,0,.07-.28.5.5,0,0,0-.15-.37.51.51,0,0,0-.38-.14.52.52,0,0,0-.39.14A.5.5,0,0,0,156.7,12.32Z" style="fill:#251a51"/><path d="M159.23,14.32a1.19,1.19,0,0,1-.32-.05.9.9,0,0,1-.29-.16.1.1,0,0,1,0,0,.11.11,0,0,1,0-.05.13.13,0,0,1,0-.08.12.12,0,0,1,.08,0,.18.18,0,0,1,.09,0,.78.78,0,0,0,.22.12.67.67,0,0,0,.24,0,.84.84,0,0,0,.4-.09.6.6,0,0,0,.27-.25.76.76,0,0,0,.1-.37.68.68,0,0,0-.09-.35.7.7,0,0,0-.25-.23.84.84,0,0,0-.37-.08,1,1,0,0,0-.26,0l-.2.09-.12.05a.11.11,0,0,1-.08,0s0,0,0-.06a.08.08,0,0,1,0-.07l.17-1.06a.13.13,0,0,1,0-.07.14.14,0,0,1,.09,0h1.18a.09.09,0,0,1,.08,0,.1.1,0,0,1,0,.16.11.11,0,0,1-.08,0h-1.13l0,0-.16.94-.07-.05.14-.07.22-.07a1.07,1.07,0,0,1,.25,0,1,1,0,0,1,.46.11.86.86,0,0,1,.32.31.94.94,0,0,1,.11.45.92.92,0,0,1-.07.38.81.81,0,0,1-.21.3.92.92,0,0,1-.31.2A1.3,1.3,0,0,1,159.23,14.32Z" style="fill:#251a51"/><path d="M161.22,13a.49.49,0,0,1-.3-.09.86.86,0,0,1-.18-.26,1,1,0,0,1-.06-.35,1,1,0,0,1,.06-.36.65.65,0,0,1,.19-.26.44.44,0,0,1,.3-.1.43.43,0,0,1,.29.1.55.55,0,0,1,.18.26.94.94,0,0,1,0,.71.68.68,0,0,1-.18.26A.49.49,0,0,1,161.22,13Zm0-.2a.26.26,0,0,0,.24-.14.8.8,0,0,0,.07-.36.81.81,0,0,0-.08-.37.27.27,0,0,0-.48,0,.82.82,0,0,0-.07.37.8.8,0,0,0,.08.36A.26.26,0,0,0,161.23,12.77Zm0,1.55a.11.11,0,0,1-.08,0,.1.1,0,0,1,0-.07.13.13,0,0,1,0-.07l1.68-2.53a.1.1,0,0,1,.08,0,.11.11,0,0,1,.08,0,.1.1,0,0,1,0,.08.08.08,0,0,1,0,.06l-1.68,2.53A.08.08,0,0,1,161.18,14.32Zm1.66,0a.44.44,0,0,1-.3-.1.58.58,0,0,1-.18-.25,1,1,0,0,1-.06-.35,1,1,0,0,1,.06-.36.57.57,0,0,1,.19-.26.44.44,0,0,1,.3-.1.43.43,0,0,1,.29.1.55.55,0,0,1,.18.26,1,1,0,0,1,.06.35,1,1,0,0,1-.06.35.65.65,0,0,1-.19.26A.41.41,0,0,1,162.84,14.34Zm0-.2a.26.26,0,0,0,.24-.14.8.8,0,0,0,.07-.36.78.78,0,0,0-.08-.37.26.26,0,0,0-.24-.15.25.25,0,0,0-.24.15.8.8,0,0,0-.08.36.7.7,0,0,0,.09.37A.26.26,0,0,0,162.85,14.14Z" style="fill:#251a51"/><path d="M167.34,14.68a.34.34,0,0,1-.35-.32V11.81a.35.35,0,0,1,.36-.32h5.95a.35.35,0,0,1,.36.32v.53h.46v1.5h-.46v.52a.34.34,0,0,1-.36.32Zm6.06-3h-6.17v2.73h6.18Zm-5.93.26H172v2.22h-4.49Z" style="fill:#251a51"/></g><path d="M49.49,3.67v5.5A11.16,11.16,0,0,0,60.7,20.28h78.6A11.16,11.16,0,0,0,150.51,9.17V1.3Z" style="fill:url(#e)"/></g></svg>